<?xml version="1.0" encoding="UTF-8"?>
<svg width="767px" height="660px" viewBox="0 0 767 660" version="1.1" xmlns="http://www.w3.org/2000/svg" xmlns:xlink="http://www.w3.org/1999/xlink">
    <!-- Generator: Sketch 55.2 (78181) - https://sketchapp.com -->
    <title>Path 4</title>
    <desc>Created with Sketch.</desc>
    <g id="Desktop-hifi" stroke="none" stroke-width="1" fill="none" fill-rule="evenodd">
        <g id="Desktop-Alternative" fill="#339EF9">
            <path d="M766.175163,0.264072566 C717.076533,255.847149 696.141392,288.182204 644.208067,341.420814 C596.221012,390.613968 365.90065,473.002865 279.908323,503.985746 C222.580105,524.641 129.022829,576.766674 -9.88098492e-14,660.053988 C-0.221539572,660.196997 -0.0309160586,660.019421 -6.81399381e-15,659.490884 C0.0440296147,658.73816 -5.95912208e-14,657.289117 -4.98628916e-14,655.173382 C-3.85524945e-14,652.772494 -3.60267371e-14,650.309839 -4.22856195e-14,647.785417 L0.381752872,0.264072566 C282.690419,0.117363247 465.529856,0.0293390586 548.900062,0 C676.207904,-0.0448012836 743.616957,0 751.170807,0 C755.413277,0 759.544289,0 764.677226,0 C767.918189,0 767.002835,0.0195181551 766.435612,-0.254684479 C766.101758,-0.414755381 766.635549,-2.13246561 766.175163,0.264072566 Z" id="Path-4"></path>
        </g>
    </g>
</svg>