<?xml version="1.0" encoding="UTF-8"?>
<svg width="675px" height="569px" viewBox="0 0 675 569" version="1.1" xmlns="http://www.w3.org/2000/svg" xmlns:xlink="http://www.w3.org/1999/xlink">
    <!-- Generator: Sketch 55.2 (78181) - https://sketchapp.com -->
    <title>Money Grphic</title>
    <desc>Created with Sketch.</desc>
    <defs>
        <linearGradient x1="68.3423521%" y1="23.6838497%" x2="32.1924937%" y2="78.0506896%" id="linearGradient-1">
            <stop stop-color="#010101" stop-opacity="0" offset="0%"></stop>
            <stop stop-color="#010101" offset="95%"></stop>
        </linearGradient>
        <linearGradient x1="-7.64393395%" y1="66.1019533%" x2="433.414081%" y2="-77.8206366%" id="linearGradient-2">
            <stop stop-color="#010101" stop-opacity="0" offset="0%"></stop>
            <stop stop-color="#010101" offset="95%"></stop>
        </linearGradient>
        <linearGradient x1="67.3656668%" y1="23.8054348%" x2="-32.1477682%" y2="174.018143%" id="linearGradient-3">
            <stop stop-color="#010101" stop-opacity="0" offset="0%"></stop>
            <stop stop-color="#010101" offset="95%"></stop>
        </linearGradient>
        <linearGradient x1="-27.4834396%" y1="-45.6217972%" x2="186.848965%" y2="219.100084%" id="linearGradient-4">
            <stop stop-color="#010101" stop-opacity="0" offset="0%"></stop>
            <stop stop-color="#010101" offset="95%"></stop>
        </linearGradient>
        <linearGradient x1="-30.8070821%" y1="105.99291%" x2="540.255295%" y2="-252.033636%" id="linearGradient-5">
            <stop stop-color="#010101" stop-opacity="0" offset="0%"></stop>
            <stop stop-color="#010101" offset="95%"></stop>
        </linearGradient>
        <linearGradient x1="72.3896576%" y1="67.2208282%" x2="-69.9094616%" y2="-42.1526545%" id="linearGradient-6">
            <stop stop-color="#010101" stop-opacity="0" offset="0%"></stop>
            <stop stop-color="#010101" offset="95%"></stop>
        </linearGradient>
        <linearGradient x1="48.3563702%" y1="20.3109656%" x2="58.9581374%" y2="184.713584%" id="linearGradient-7">
            <stop stop-color="#010101" stop-opacity="0" offset="0%"></stop>
            <stop stop-color="#010101" offset="95%"></stop>
        </linearGradient>
    </defs>
    <g id="Desktop-hifi" stroke="none" stroke-width="1" fill="none" fill-rule="evenodd">
        <g id="Desktop-Zero-Fees" transform="translate(-347.000000, -146.000000)" fill-rule="nonzero">
            <g id="Money-Grphic" transform="translate(347.000000, 146.000000)">
                <path d="M667.608347,202.538655 C657.724147,261.91749 654.129421,322.171872 656.883719,382.303619 C658.883226,426.975425 661.827954,478.63439 628.745203,508.79906 C592.632896,541.761015 536.367982,529.167175 487.519421,531.407425 C422.480914,534.386353 361.405065,567.299871 296.330203,568.522926 C253.771,569.358479 212.205492,556.486121 172.639491,540.864915 C122.397335,521.005397 72.6156711,495.418104 37.6667134,454.245933 C21.0526284,434.72548 11.5882955,415.556202 6.49864147,395.975202 C-0.0330812132,370.654317 0.718248669,344.546317 2.68140094,315.592593 C3.09342056,309.537862 3.56603129,303.192504 4.0265238,296.810817 C8.51026664,236.663119 -12.8662803,176.479093 18.3017916,119.685716 C48.9124252,63.9821909 117.404627,40.9742131 180.758701,35.6339403 C244.112776,30.2936676 309.114929,37.4019218 370.421024,20.581879 C393.445649,14.2001925 415.767418,4.50051343 439.4949,1.27939653 C461.525831,-1.69953113 483.920309,1.0008789 505.890649,4.50051343 C540.645715,10.046647 575.691619,17.6392797 606.471907,34.7136212 C637.252196,51.7879627 663.572978,79.5186307 671.910316,113.643095 C678.902532,142.669475 672.516228,173.076334 667.608347,202.538655 Z" id="Path" fill="#339EF9" opacity="0.378555618"></path>
                <path d="M656.841396,310.945047 C656.566928,312.164749 656.009227,313.300322 655.214706,314.257259 C654.76006,314.801569 654.180648,315.224373 653.527319,315.488565 C651.232958,316.387418 648.756505,314.909851 646.704934,313.49385 C642.178111,310.512982 637.824921,307.26924 633.667137,303.778849 C631.239242,301.636377 628.107257,298.853627 628.010141,295.615293 C627.930626,294.403689 628.260305,293.200743 628.944881,292.204577 C630.559305,289.852199 633.220994,288.467712 636.046474,288.51066 C638.817769,288.54261 641.542345,289.238767 643.997831,290.542314 C647.971549,292.288418 651.43068,295.050321 654.037177,298.558114 C656.680143,302.088068 657.701404,306.599231 656.841396,310.945047 Z" id="Path" fill="#339EF9"></path>
                <path d="M654.222715,314.266684 C653.768743,314.807587 653.190189,315.227744 652.537829,315.490283 C650.246869,316.38351 647.774086,314.915191 645.725556,313.508052 C641.205443,310.545842 636.858705,307.322402 632.707083,303.853856 C630.282787,301.724794 627.155444,298.95946 627.058472,295.741394 C628.723802,294.117038 630.94892,293.208932 633.264671,293.208544 C636.042656,293.246404 638.773619,293.937689 641.240607,295.227483 C645.200787,296.981235 648.654428,299.722249 651.277195,303.193113 C653.607019,306.377398 654.659094,310.332634 654.222715,314.266684 L654.222715,314.266684 Z" id="Path" fill="url(#linearGradient-1)"></path>
                <path d="" id="Path" fill="#FECB9C"></path>
                <path d="M254.117967,210.07262 C251.230213,215.542718 242.579084,214.924149 238.805591,219.702904 C237.167579,221.752675 236.74291,224.554432 236.378907,227.174258 C234.704495,239.400109 232.969416,251.589574 231.246471,263.779039 C235.966371,266.677828 240.868272,269.84345 243.294956,274.852653 C245.72164,279.861856 244.180696,286.981474 238.951192,288.812926 C233.297018,290.632249 228.116048,285.489629 223.068546,282.360393 C217.183837,278.624716 207.889638,278.212336 204.565081,284.373777 C207.889638,286.338646 211.299129,288.436932 213.495278,291.65107 C215.691427,294.865207 216.346631,299.486288 213.956348,302.567009 C210.461923,306.909127 203.630808,305.502183 198.449837,303.355382 C193.268867,301.208581 187.056556,298.916234 182.567191,302.288046 C186.055302,304.978537 188.964674,308.344703 191.121252,312.185164 C192.419528,314.428996 193.353801,317.315655 191.909924,319.462456 C190.466047,321.609258 187.287091,321.609258 184.629872,321.136234 C172.350852,318.856015 161.224506,310.632675 148.896952,310.074749 C148.14951,310.026283 147.399711,310.026283 146.652269,310.074749 C133.900045,310.450742 123.392504,319.462456 112.411759,325.999891 C111.979166,326.275137 111.529299,326.522267 111.064949,326.739749 C102.720176,331.631405 93.6779515,335.222384 84.2500919,337.388854 C79.336057,338.516834 74.4341554,337.716332 69.6293213,339.159662 C64.157149,340.797052 59.6799172,344.302282 55.2390856,347.892413 C37.5970935,362.301452 19.6517659,377.147129 6.20793694,395.643581 C0.0666076351,371.827899 -0.618423248,354.948629 0.714444169,337.579758 C0.80094978,336.452486 0.895955295,335.323151 0.99852071,334.189724 C2.68140094,315.592593 8.17355092,312.609672 8.45261957,312.42774 C21.1522654,304.859356 33.8883116,297.323315 46.6607579,289.819618 C47.5984572,289.177933 48.6415931,288.705826 49.7426465,288.424803 C53.2977385,287.818362 56.003491,291.178046 57.8720377,294.355797 C64.1328822,285.247052 73.0994793,278.054662 82.3087448,271.990251 C92.4886838,265.173854 103.19036,259.194345 113.855636,253.166321 C123.659439,247.611321 133.511776,242.104836 143.327712,236.537707 C154.24779,230.473297 165.325602,224.214825 177.143552,219.921223 C187.238558,216.282576 197.843166,214.038745 207.744037,209.878559 C217.839042,205.718373 224.937092,201.752249 235.650902,199.981441 C239.812665,199.326485 246.57098,198.441081 250.138205,200.587882 C253.70543,202.734683 256.035047,206.324814 254.117967,210.07262 Z" id="Path" fill="#FECB9C"></path>
                <path d="M157.921203,304.251527 C157.182183,307.162814 153.463241,308.251489 150.387962,308.63069 C149.601439,308.88766 148.954012,309.46791 148.60001,310.233121 C147.865734,310.184242 147.129144,310.184242 146.394868,310.233121 C133.867279,310.612323 123.544832,319.70092 112.757518,326.294129 C112.332545,326.571724 111.890603,326.820962 111.434433,327.040299 C110.468938,323.84767 110.516617,314.710143 117.072443,293.707286 C118.264412,290.037596 119.599417,285.144677 120.648349,281.59731 C121.26008,279.24875 122.157117,276.988436 123.318358,274.869546 C127.417259,268.354661 133.730739,263.637067 141.03101,261.634199 C142.363921,261.087122 143.858863,261.135896 145.155221,261.768754 C146.537904,262.612783 146.716699,264.545486 146.263751,266.062291 C145.810803,267.579096 144.833389,268.924649 144.332763,270.441454 C142.270657,276.129473 146.716699,281.829724 150.161488,286.869431 C153.008565,290.929448 155.365964,295.328413 157.182183,299.970223 C157.856019,301.283856 158.114328,302.78029 157.921203,304.251527 Z" id="Path" fill="url(#linearGradient-2)"></path>
                <path d="M163.627646,189.494339 L225.276475,189.494339 C228.087587,189.494384 230.36645,191.773227 230.366521,194.584339 L230.367654,321.480518 C230.367724,324.291647 228.088874,326.570538 225.277744,326.570563 C225.277729,326.570563 225.277714,326.570563 225.277699,326.570518 L163.62887,326.570518 C160.817758,326.570472 158.538895,324.291629 158.538824,321.480518 L158.537691,194.584339 C158.537621,191.77321 160.816471,189.494319 163.6276,189.494293 C163.627616,189.494293 163.627631,189.494293 163.627646,189.494339 Z" id="Rectangle" fill="#339EF9" transform="translate(194.452672, 258.032428) rotate(50.070000) translate(-194.452672, -258.032428) "></path>
                <path d="M163.627646,189.494339 L225.276475,189.494339 C228.087587,189.494384 230.36645,191.773227 230.366521,194.584339 L230.367654,321.480518 C230.367724,324.291647 228.088874,326.570538 225.277744,326.570563 C225.277729,326.570563 225.277714,326.570563 225.277699,326.570518 L163.62887,326.570518 C160.817758,326.570472 158.538895,324.291629 158.538824,321.480518 L158.537691,194.584339 C158.537621,191.77321 160.816471,189.494319 163.6276,189.494293 C163.627616,189.494293 163.627631,189.494293 163.627646,189.494339 Z" id="Rectangle" fill="url(#linearGradient-3)" transform="translate(194.452672, 258.032428) rotate(50.070000) translate(-194.452672, -258.032428) "></path>
                <path d="M166.698905,197.618411 L224.155115,197.618411 C226.667995,197.618452 228.705093,199.655532 228.705156,202.168411 L228.70613,311.2359 C228.706193,313.748796 226.669107,315.785919 224.156211,315.785941 C224.156198,315.785941 224.156184,315.785941 224.156171,315.7859 L166.69996,315.7859 C164.187081,315.78586 162.149983,313.74878 162.14992,311.2359 L162.148946,202.168411 C162.148883,199.655516 164.185969,197.618393 166.698865,197.618371 C166.698878,197.618371 166.698892,197.618371 166.698905,197.618411 Z" id="Rectangle" fill="#FFFBFF" transform="translate(195.427538, 256.702156) rotate(50.070000) translate(-195.427538, -256.702156) "></path>
                <path d="M67.354658,261.880784 C72.2928481,257.258042 77.6398695,253.091833 83.330184,249.433221 C89.4883969,245.851062 95.9176559,242.75601 102.559085,240.176408 C115.087005,234.971726 127.627064,229.742779 140.604144,225.836234 C144.549468,224.623022 148.51907,223.579659 152.488673,222.524164 L186.806919,213.328011 C187.887331,216.761403 186.029994,220.401041 183.954146,223.337016 C177.476889,232.498777 168.403671,239.512965 157.902871,243.476347 C154.928704,244.592503 151.833142,245.49028 149.308135,247.467817 C147.472398,249.114131 145.842032,250.975699 144.452352,253.012199 C136.865191,262.7179 125.757588,270.106366 121.387383,281.619754 C119.918509,285.441374 119.238699,289.614826 117.065736,293.072482 C114.637845,296.869838 110.753218,299.39332 106.953568,301.783349 C92.3862192,310.991634 77.3818499,320.296975 60.6293986,324.567484 C58.6505967,325.242957 56.5207231,325.343917 54.4868332,324.858655 C52.5025532,323.992081 50.7967864,322.593861 49.5582135,320.818656 C45.0908932,315.565446 40.2715286,310.445688 36.1076947,304.949834 C32.1016737,299.648095 34.019708,296.323892 38.0864262,291.798609 C47.2983861,281.308465 57.0685932,271.321413 67.354658,261.880784 L67.354658,261.880784 Z" id="Path" fill="#FECB9C"></path>
                <polygon id="Rectangle" fill="#FFFBFF" transform="translate(200.277475, 248.934889) rotate(51.090000) translate(-200.277475, -248.934889) " points="180.605058 239.147071 219.949718 239.14742 219.949891 258.722707 180.605232 258.722358"></polygon>
                <path d="M657.139431,400.342436 C643.402192,379.59674 623.876383,363.465235 604.666093,347.64861 C600.273089,344.015388 595.795138,340.563828 590.28568,338.928878 C585.51648,337.4877 580.577384,338.287009 575.650424,337.16071 C566.049754,334.948149 556.848252,331.27175 548.370113,326.261045 L548.370113,326.261045 L547.532773,325.752394 C536.61094,319.224705 526.041034,310.226426 513.28676,309.850993 C510.83969,309.776998 508.393096,310.013022 506.005538,310.553416 C495.641933,312.648574 485.970043,319.030933 475.36373,320.94443 C472.791032,321.416749 469.660107,321.416749 468.082509,319.273148 C466.50491,317.129547 467.609229,314.283524 468.871308,312.006705 C471.034118,308.161584 473.96211,304.798549 477.475285,302.124342 C472.985198,298.757556 466.723347,301.094929 461.590086,303.190087 C456.456824,305.285245 449.527528,306.738533 446.081084,302.402889 C443.65401,299.363093 444.248643,294.748902 446.493686,291.503224 C448.738729,288.257545 452.148768,286.235052 455.425318,284.23678 C452.148768,278.084525 442.804534,278.49629 436.91888,282.226397 C431.919107,285.350968 426.737304,290.485921 421.082222,288.669311 C415.851878,286.889032 414.347092,279.671031 416.689218,274.72985 C419.031345,269.788668 423.97044,266.567212 428.73964,263.672745 C427.016418,251.501452 425.329602,239.33016 423.606379,227.122535 C423.278724,224.506615 422.805445,221.709034 421.179305,219.662319 C417.405205,214.818024 408.752687,215.508336 405.91301,210.046393 C403.995622,206.316285 406.240665,202.779949 409.832735,200.587905 C413.424804,198.395862 420.159934,199.376831 424.273824,199.982368 C435.062168,201.750536 442.112818,205.710748 452.257987,209.864731 C462.111907,214.018715 472.766761,216.259202 482.814847,219.892423 C494.634697,224.179625 505.702154,230.380323 516.684664,236.484136 C526.502178,242.042965 536.307556,247.541241 546.161476,253.087959 C556.864872,259.143329 567.519727,265.077591 577.713437,271.883826 C586.924183,277.939196 595.916491,285.120864 602.202613,294.216029 C604.022918,291.043015 606.729106,287.688341 610.321175,288.293878 C611.412111,288.571692 612.443934,289.04348 613.367153,289.686613 C626.125471,297.195271 638.879745,304.720077 651.629973,312.26103 C652.515855,312.769681 655.683186,314.949614 656.156466,315.833698 C655.161366,343.627845 654.287619,372.826836 657.139431,400.342436 Z" id="Path" fill="#FECB9C"></path>
                <path d="M630.048399,298.351848 L624.35726,295.326904 C624.091608,295.144416 623.770709,295.062353 623.451028,295.095154 C623.164332,295.198802 622.926979,295.407905 622.786457,295.680627 C621.802331,297.455018 621.154872,299.399216 620.877328,301.413385 C619.025789,309.826745 615.224379,317.677025 609.785044,324.320022 C606.740103,328.040216 603.054758,331.638436 601.991446,336.310024 C600.928133,340.981612 602.680182,345.762976 605.543877,349.446578 C608.407571,353.13018 612.394993,355.874585 616.273667,358.314056 C620.152342,360.753528 624.260595,363.192999 627.583447,366.51068 C636.633687,360.533975 641.611924,350.044248 645.393933,339.810665 C645.587263,339.273982 645.973922,338.59093 646.602243,338.712903 C646.86276,338.794 647.088453,338.961647 647.242647,339.1886 C650.215089,342.701439 651.942972,347.324238 655.700816,350.032051 L657.102455,317.45291 C657.198514,316.770141 657.106546,316.073855 656.836627,315.440346 C656.414012,314.833694 655.826498,314.363475 655.144993,314.086439 C647.422289,310.01095 640.060773,305.273147 633.141672,299.925307" id="Path" fill="url(#linearGradient-4)"></path>
                <path d="" id="Path" fill="#FECB9C"></path>
                <path d="M567.811782,318.275051 C567.924405,319.927833 567.652431,321.584262 567.017413,323.113078 C565.440712,326.136844 561.456832,326.838358 558.074747,326.983499 C554.892182,327.100894 551.705549,327.036282 548.530286,326.789978 L548.530286,326.789978 L547.69981,326.281985 C536.867509,319.762744 526.384248,310.776109 513.734528,310.401162 C511.307518,310.327262 508.88098,310.562981 506.512994,311.102676 C504.088698,309.41037 501.867353,307.441917 499.893254,305.236568 C494.105103,298.532412 491.59028,289.585281 493.032797,280.828723 C495.536262,266.399308 515.900988,248.280898 527.55173,265.371228 C531.118283,270.83648 535.320365,275.855047 540.069055,280.32073 C547.43502,287.214919 558.556183,288.932418 564.213051,298.064194 C567.715495,303.978682 567.811782,311.235722 567.811782,318.275051 Z" id="Path" fill="url(#linearGradient-5)"></path>
                <path d="M435.151981,189.485405 L496.80081,189.485405 C499.61194,189.48536 501.89081,191.76423 501.89081,194.57536 C501.89081,194.575375 501.89081,194.57539 501.890765,194.575405 L501.889632,321.471584 C501.889561,324.282695 499.610698,326.561538 496.799586,326.561584 L435.150757,326.561584 C432.339628,326.561629 430.060757,324.282759 430.060757,321.471629 C430.060757,321.471614 430.060757,321.471599 430.060803,321.471584 L430.061936,194.575405 C430.062006,191.764293 432.34087,189.48545 435.151981,189.485405 Z" id="Rectangle" fill="#339EF9" transform="translate(465.975784, 258.023494) rotate(129.930000) translate(-465.975784, -258.023494) "></path>
                <path d="M435.151981,189.485405 L496.80081,189.485405 C499.61194,189.48536 501.89081,191.76423 501.89081,194.57536 C501.89081,194.575375 501.89081,194.57539 501.890765,194.575405 L501.889632,321.471584 C501.889561,324.282695 499.610698,326.561538 496.799586,326.561584 L435.150757,326.561584 C432.339628,326.561629 430.060757,324.282759 430.060757,321.471629 C430.060757,321.471614 430.060757,321.471599 430.060803,321.471584 L430.061936,194.575405 C430.062006,191.764293 432.34087,189.48545 435.151981,189.485405 Z" id="Rectangle" fill="url(#linearGradient-6)" transform="translate(465.975784, 258.023494) rotate(129.930000) translate(-465.975784, -258.023494) "></path>
                <path d="M436.263838,197.588443 L493.720048,197.588443 C496.232944,197.588402 498.270048,199.625507 498.270048,202.138402 C498.270048,202.138416 498.270048,202.13843 498.270007,202.138443 L498.269033,311.205932 C498.26897,313.718812 496.231873,315.755892 493.718993,315.755932 L436.262783,315.755932 C433.749887,315.755973 431.712783,313.718869 431.712783,311.205973 C431.712783,311.205959 431.712783,311.205946 431.712823,311.205932 L431.713797,202.138443 C431.71386,199.625563 433.750958,197.588484 436.263838,197.588443 Z" id="Rectangle" fill="#FFFBFF" transform="translate(464.991415, 256.672188) rotate(129.930000) translate(-464.991415, -256.672188) "></path>
                <path d="M592.606447,261.880784 C587.672429,257.260991 582.332251,253.094971 576.650645,249.433221 C570.491175,245.851019 564.060935,242.755977 557.418747,240.176408 C544.908913,234.971726 532.362678,229.742779 519.391764,225.836234 C515.460449,224.623022 511.480598,223.579659 507.512882,222.524164 L473.210942,213.328011 C472.131043,216.761403 473.987498,220.401041 476.062359,223.337016 C482.536539,232.498777 491.605446,239.512965 502.101256,243.476347 C505.07401,244.592503 508.168101,245.49028 510.704042,247.467817 C512.536082,249.116918 514.165361,250.978129 515.557518,253.012199 C523.141074,262.7179 534.2434,270.106366 538.672197,281.619754 C540.140373,285.441374 540.81986,289.614826 543.003924,293.072482 C545.430662,296.869838 549.301309,299.39332 553.099154,301.783349 C567.72025,310.991634 582.656821,320.296975 599.401313,324.567484 C601.379175,325.242957 603.508036,325.343917 605.54096,324.858655 C607.525766,323.989115 609.23391,322.591723 610.479372,320.818656 C614.932436,315.565446 619.761644,310.445688 623.911366,304.949834 C627.915483,299.648095 625.998361,296.323892 621.933575,291.798609 C612.702413,281.306535 602.912511,271.319448 592.606447,261.880784 L592.606447,261.880784 Z" id="Path" fill="#FECB9C"></path>
                <polygon id="Rectangle" fill="#FFFBFF" transform="translate(460.159777, 248.909143) rotate(128.910000) translate(-460.159777, -248.909143) " points="440.487534 239.121673 479.832194 239.121325 479.83202 258.696612 440.487361 258.696961"></polygon>
                <path d="M281.129923,223.201872 L278.587278,219.628521 C283.574852,216.299397 288.869269,213.459958 294.397468,211.149385 L296.120682,215.183031 C290.883149,217.374325 285.863823,220.059257 281.129923,223.201872 L281.129923,223.201872 Z M396.259919,215.81291 C390.988127,213.552236 385.583402,211.618595 380.076165,210.022871 L381.28121,205.807529 C386.961417,207.451091 392.535302,209.44546 397.971083,211.779263 L396.259919,215.81291 Z M312.304436,209.465671 L311.099391,205.226102 C316.812821,203.650346 322.626627,202.468593 328.500241,201.689091 L329.066612,206.04979 C323.40747,206.798079 317.806679,207.939437 312.304436,209.465671 L312.304436,209.465671 Z M363.31399,206.388955 C357.655317,205.54955 351.946139,205.100318 346.226452,205.044406 L346.226452,200.647368 C352.148059,200.710968 358.058458,201.180429 363.916512,202.052482 L363.31399,206.388955 Z" id="Shape" fill="#FFFFFF" transform="translate(338.279180, 211.924620) rotate(4.000000) translate(-338.279180, -211.924620) "></path>
                <path d="M286.756463,170.098547 L286.756463,164.550053 C283.766293,164.534419 280.83996,163.68785 278.307358,162.105783 L279.633671,158.439378 C282.002101,159.961878 284.759707,160.776256 287.579269,160.785877 C291.496805,160.785877 294.149431,158.537148 294.149431,155.408483 C294.149431,152.279817 291.988032,150.519942 287.910847,148.882281 C282.274017,146.682438 278.810866,144.152618 278.810866,139.37407 C278.810866,134.815506 282.052964,131.356864 287.137164,130.538033 L287.137164,124.98954 L290.563473,124.98954 L290.563473,130.318049 C293.078989,130.341625 295.547091,131.001933 297.735388,132.236801 L296.347672,135.903206 C294.247803,134.655166 291.842534,134.00812 289.396809,134.03334 C285.147695,134.03334 283.551207,136.563159 283.551207,138.750781 C283.551207,141.610577 285.589799,143.040475 290.391544,145.008113 C296.077497,147.317948 298.988017,150.177744 298.988017,155.066285 C298.988017,159.404864 295.942409,163.462353 290.256456,164.391176 L290.256456,170.098547 L286.756463,170.098547 Z" id="Path" fill="#339EF9"></path>
                <path d="M414.600538,162.555936 L414.600538,157.019664 C411.611214,156.998237 408.686439,156.152119 406.151432,154.575394 L407.477745,150.908988 C409.844852,152.435797 412.602554,153.254446 415.423343,153.267709 C419.340879,153.267709 421.993505,151.018981 421.993505,147.890315 C421.993505,144.761649 419.832106,143.001774 415.754921,141.351892 C410.130371,139.16427 406.65494,136.63445 406.65494,131.855902 C406.65494,127.297338 409.909319,123.838696 414.981239,123.007644 L414.981239,117.471372 L418.407547,117.471372 L418.407547,122.799881 C420.923063,122.823457 423.391166,123.483765 425.579462,124.718633 L424.191746,128.385038 C422.095947,127.137995 419.694891,126.490938 417.253164,126.515172 C412.991769,126.515172 411.395281,129.044991 411.395281,131.232613 C411.395281,134.092409 413.433873,135.510086 418.235618,137.489945 C423.921571,139.79978 426.832091,142.659577 426.832091,147.548117 C426.832091,151.886697 423.786484,155.944185 418.112811,156.873008 L418.112811,162.580379 L414.600538,162.555936 Z" id="Path" fill="#339EF9"></path>
                <path d="M340.338171,268.762281 L340.338171,263.21529 C337.347336,263.204224 334.419769,262.357528 331.889066,260.771682 L333.215379,257.10627 C335.582485,258.632665 338.340188,259.451092 341.160976,259.464352 C345.078512,259.464352 347.731138,257.216232 347.731138,254.088414 C347.731138,250.960595 345.58202,249.201198 341.492555,247.551762 C335.868005,245.352515 332.392573,242.82338 332.392573,238.058344 C332.392573,233.501015 335.646953,230.031091 340.718872,229.212483 L340.718872,223.665492 L344.145181,223.665492 L344.145181,228.992558 C346.661214,229.012353 349.130253,229.672733 351.317096,230.91079 L349.94166,234.576203 C347.840296,233.33201 345.436036,232.68541 342.990797,232.706842 C338.729402,232.706842 337.132914,235.235977 337.132914,237.435224 C337.132914,240.282028 339.171507,241.711539 343.973251,243.690861 C349.659204,246.000071 352.569725,248.846874 352.569725,253.734091 C352.569725,258.071495 349.536398,262.127885 343.850444,263.068674 L343.850444,268.774499 L340.338171,268.762281 Z" id="Path" fill="#339EF9"></path>
                <path d="M631.956683,297.907399 C631.956683,297.907399 607.236726,339.092309 605.549067,348.135844 C603.861407,357.179379 621.867153,371.209535 625.813118,371.209535 C629.759084,371.209535 652.439281,313.000081 652.439281,313.000081 C652.439281,313.000081 647.303455,302.27824 631.956683,297.907399 Z" id="Path" fill="#339EF9"></path>
                <path d="M632.441238,297.907399 C632.441238,297.907399 608.157901,339.755047 606.487362,348.941116 C604.816824,358.127185 622.744851,372.149306 626.67909,372.149306 C630.61333,372.149306 652.439281,313.205363 652.439281,313.205363 C652.439281,313.205363 647.742404,302.293869 632.441238,297.907399 Z" id="Path" fill="url(#linearGradient-7)"></path>
                <ellipse id="Oval" fill="#339EF9" opacity="0.24" cx="196.054737" cy="257.027362" rx="23.030734" ry="23.0243889"></ellipse>
                <ellipse id="Oval" fill="#339EF9" opacity="0.24" cx="466.783364" cy="255.14782" rx="23.030734" ry="23.0243889"></ellipse>
            </g>
        </g>
    </g>
</svg>