<?xml version="1.0" encoding="UTF-8"?>
<svg width="675px" height="546px" viewBox="0 0 675 546" version="1.1" xmlns="http://www.w3.org/2000/svg" xmlns:xlink="http://www.w3.org/1999/xlink">
    <!-- Generator: Sketch 55.2 (78181) - https://sketchapp.com -->
    <title>Graphic</title>
    <desc>Created with Sketch.</desc>
    <defs>
        <linearGradient x1="49.5313337%" y1="41.3401849%" x2="51.2720943%" y2="73.6552018%" id="linearGradient-1">
            <stop stop-color="#010101" stop-opacity="0" offset="0%"></stop>
            <stop stop-color="#010101" offset="95%"></stop>
        </linearGradient>
        <linearGradient x1="49.5204741%" y1="42.2360771%" x2="51.3146552%" y2="71.2086467%" id="linearGradient-2">
            <stop stop-color="#010101" stop-opacity="0" offset="0%"></stop>
            <stop stop-color="#010101" offset="95%"></stop>
        </linearGradient>
        <linearGradient x1="67.5106267%" y1="67.4407182%" x2="20.0001247%" y2="28.6948483%" id="linearGradient-3">
            <stop stop-color="#010101" stop-opacity="0" offset="0%"></stop>
            <stop stop-color="#010101" offset="95%"></stop>
        </linearGradient>
        <linearGradient x1="49.1735815%" y1="33.2759881%" x2="67.88072%" y2="93.6257787%" id="linearGradient-4">
            <stop stop-color="#010101" stop-opacity="0" offset="0%"></stop>
            <stop stop-color="#010101" offset="95%"></stop>
        </linearGradient>
        <linearGradient x1="59.9359156%" y1="69.5689561%" x2="38.1567828%" y2="16.9025348%" id="linearGradient-5">
            <stop stop-color="#010101" stop-opacity="0" offset="0%"></stop>
            <stop stop-color="#010101" offset="95%"></stop>
        </linearGradient>
        <linearGradient x1="59.319147%" y1="53.2326615%" x2="-45.3796151%" y2="16.5966622%" id="linearGradient-6">
            <stop stop-color="#010101" stop-opacity="0" offset="0%"></stop>
            <stop stop-color="#010101" offset="95%"></stop>
        </linearGradient>
        <linearGradient x1="64.4740655%" y1="37.9864338%" x2="24.5146334%" y2="71.1256837%" id="linearGradient-7">
            <stop stop-color="#010101" stop-opacity="0" offset="0%"></stop>
            <stop stop-color="#010101" offset="95%"></stop>
        </linearGradient>
        <linearGradient x1="50.7861012%" y1="48.5594646%" x2="43.5196195%" y2="57.1362248%" id="linearGradient-8">
            <stop stop-color="#010101" stop-opacity="0" offset="0%"></stop>
            <stop stop-color="#010101" offset="95%"></stop>
        </linearGradient>
        <linearGradient x1="49.5626529%" y1="41.6300405%" x2="51.7122009%" y2="89.389752%" id="linearGradient-9">
            <stop stop-color="#010101" stop-opacity="0" offset="0%"></stop>
            <stop stop-color="#010101" offset="95%"></stop>
        </linearGradient>
        <linearGradient x1="49.2245026%" y1="38.2813372%" x2="70.6094313%" y2="104.028091%" id="linearGradient-10">
            <stop stop-color="#010101" stop-opacity="0" offset="0%"></stop>
            <stop stop-color="#010101" offset="95%"></stop>
        </linearGradient>
        <linearGradient x1="12.7483769%" y1="8.79140283%" x2="152.134566%" y2="151.432844%" id="linearGradient-11">
            <stop stop-color="#010101" stop-opacity="0" offset="0%"></stop>
            <stop stop-color="#010101" offset="95%"></stop>
        </linearGradient>
        <linearGradient x1="16.1567477%" y1="-2.61681859%" x2="125.880134%" y2="155.127161%" id="linearGradient-12">
            <stop stop-color="#010101" stop-opacity="0" offset="0%"></stop>
            <stop stop-color="#010101" offset="95%"></stop>
        </linearGradient>
        <linearGradient x1="41.5172913%" y1="27.0639088%" x2="74.1444867%" y2="115.855167%" id="linearGradient-13">
            <stop stop-color="#010101" stop-opacity="0" offset="0%"></stop>
            <stop stop-color="#010101" offset="95%"></stop>
        </linearGradient>
        <linearGradient x1="53.010324%" y1="-18.4927984%" x2="41.1887461%" y2="188.734568%" id="linearGradient-14">
            <stop stop-color="#010101" stop-opacity="0" offset="0%"></stop>
            <stop stop-color="#010101" offset="95%"></stop>
        </linearGradient>
        <linearGradient x1="31.3719308%" y1="34.1335562%" x2="66.3182784%" y2="63.9052213%" id="linearGradient-15">
            <stop stop-color="#010101" stop-opacity="0" offset="0%"></stop>
            <stop stop-color="#010101" offset="95%"></stop>
        </linearGradient>
        <linearGradient x1="50%" y1="-106.876457%" x2="50%" y2="144.444444%" id="linearGradient-16">
            <stop stop-color="#010101" stop-opacity="0" offset="0%"></stop>
            <stop stop-color="#010101" offset="95%"></stop>
        </linearGradient>
        <linearGradient x1="0.0453309157%" y1="50%" x2="100%" y2="50%" id="linearGradient-17">
            <stop stop-color="#FFFFFF" stop-opacity="0" offset="0%"></stop>
            <stop stop-color="#FFFFFF" stop-opacity="0.23" offset="13%"></stop>
            <stop stop-color="#FFFFFF" stop-opacity="0.41" offset="23%"></stop>
            <stop stop-color="#FFFFFF" stop-opacity="0.59" offset="35%"></stop>
            <stop stop-color="#FFFFFF" stop-opacity="0.74" offset="48%"></stop>
            <stop stop-color="#FFFFFF" stop-opacity="0.85" offset="60%"></stop>
            <stop stop-color="#FFFFFF" stop-opacity="0.93" offset="72%"></stop>
            <stop stop-color="#FFFFFF" stop-opacity="0.98" offset="84%"></stop>
            <stop stop-color="#FFFFFF" offset="95%"></stop>
        </linearGradient>
    </defs>
    <g id="Hi-Fi-Design" stroke="none" stroke-width="1" fill="none" fill-rule="evenodd">
        <g id="Desktop-Alternative" transform="translate(-347.000000, -146.000000)" fill-rule="nonzero">
            <g id="Graphic" transform="translate(347.000000, 146.000000)">
                <path d="M674.602053,289.02889 C674.441164,291.900856 674.227986,294.756732 673.96252,297.596518 C671.923252,318.798382 666.867315,339.6141 661.702779,360.248811 C651.434039,401.276892 639.705232,444.018498 611.758815,474.65682 C578.080728,511.50969 526.737031,524.071523 478.156602,525.797116 C429.576172,527.522709 380.814743,520.185923 332.415314,525.121359 C283.376351,530.141266 235.435455,547.710938 186.215492,545.864674 C161.861334,544.919349 137.921589,539.260002 115.721983,529.200033 C93.5796366,519.172288 72.9818241,504.691789 58.0915485,484.756968 C34.8511345,453.829036 28.2868639,415.021298 25.4270622,377.782282 C25.1367703,374.130927 24.6046692,370.502843 23.8342612,366.921908 C23.6170611,365.787602 23.3515942,364.665363 23.0499274,363.531057 C18.5973247,346.214794 9.60765263,331.239545 4.26211608,314.683507 C3.32091551,311.739139 2.45211499,308.75857 1.77638125,305.669397 C0.106243248,298.209878 -0.390435449,290.535525 0.304247026,282.922946 C2.3073149,261.986558 9.95758618,242.039671 17.8009242,222.454796 C21.2761263,213.742362 24.8599285,204.993727 28.7453975,196.389897 C38.1332698,175.646583 49.3794099,155.8445 65.6694197,139.771146 C98.3339061,107.564103 146.516135,95.3039471 192.671163,89.4152109 C238.826191,83.5264746 286.477486,82.5128397 330.303646,67.1273094 C375.67434,51.1746264 409.160302,6.52222152 457.258065,1.88846184 C492.408286,-1.4661871 562.768919,-2.16187838 592.983871,15.5284646 C659.736711,54.493074 668.44805,174.669149 674.21592,253.382728 C675.110877,265.244121 675.239855,277.150892 674.602053,289.02889 Z" id="Path" fill="#339EF9" opacity="0.243557478"></path>
                <ellipse id="Oval" fill="url(#linearGradient-1)" opacity="0.26" cx="206.5" cy="502" rx="90.5" ry="18"></ellipse>
                <ellipse id="Oval" fill="url(#linearGradient-2)" opacity="0.26" cx="466.5" cy="493" rx="111.5" ry="21"></ellipse>
                <path d="M176.114919,430.917782 C170.882497,430.71194 165.665537,430.195105 160.48936,429.369787 C159.179099,429.093955 157.839417,429.002328 156.50591,429.09734 C154.853024,429.412684 153.2546,429.984546 151.763707,430.793943 C142.706913,434.904603 132.666355,436.036351 122.978536,434.038539 C121.129077,433.654637 119.125496,433.023055 118.141489,431.351221 C117.681603,430.446751 117.410857,429.45057 117.34717,428.428607 C116.966033,425.20355 116.898507,421.946468 117.145627,418.7072 C117.182694,416.88532 117.586643,415.092015 118.331177,413.444018 C119.317015,411.762483 120.745074,410.412633 122.445038,409.555455 C128.645469,406.087947 136.126293,407.078663 143.156609,407.301575 C151.455464,407.611174 160.050707,406.868136 168.053174,409.245856 C173.743817,410.91769 179.339616,414.60811 182.386482,420.032283 C186.037978,426.397638 183.299356,431.214997 176.114919,430.917782 Z" id="Path" fill="#FDB386"></path>
                <path d="M176.114919,430.917782 C170.882497,430.71194 165.665537,430.195105 160.48936,429.369787 C159.179099,429.093955 157.839417,429.002328 156.50591,429.09734 C154.853024,429.412684 153.2546,429.984546 151.763707,430.793943 C142.706913,434.904603 132.666355,436.036351 122.978536,434.038539 C121.129077,433.654637 119.125496,433.023055 118.141489,431.351221 C117.681603,430.446751 117.410857,429.45057 117.34717,428.428607 C116.966033,425.20355 116.898507,421.946468 117.145627,418.7072 C117.182694,416.88532 117.586643,415.092015 118.331177,413.444018 C119.317015,411.762483 120.745074,410.412633 122.445038,409.555455 C128.645469,406.087947 136.126293,407.078663 143.156609,407.301575 C151.455464,407.611174 160.050707,406.868136 168.053174,409.245856 C173.743817,410.91769 179.339616,414.60811 182.386482,420.032283 C186.037978,426.397638 183.299356,431.214997 176.114919,430.917782 Z" id="Path" fill="url(#linearGradient-3)"></path>
                <polygon id="Path" fill="#339EF9" points="365 458 407.319989 486.977141 547 488 507.841987 461.068578"></polygon>
                <polygon id="Path" fill="#FFFFFF" points="381 460 413.795484 483.178661 522 484 491.662059 462.464016"></polygon>
                <path d="M347,359.824 C347,359.824 381.358084,342.928 392.986974,316 L430,327.616 C430,327.616 390.356057,380.416 375.015053,382 L347,359.824 Z" id="Path" fill="#339EF9"></path>
                <path d="M384,392.97044 C386.149328,391.621154 417.851909,381.096722 431.028753,356 L463,373.001005 C463,373.001005 431.566084,415.650714 403.343948,417 L384,392.97044 Z" id="Path" fill="#339EF9"></path>
                <polygon id="Path" fill="#339EF9" points="495.87783 435 519 461.948048 433.868375 472 423 452.238915"></polygon>
                <path d="M432.543014,449.796327 L488.214155,439 C488.214155,439 490.804912,441.420701 496.155125,441.420701 L506,452.882721 C506,452.882721 503.071843,456.828464 504.734747,459.249165 L443.074741,468 C443.074741,468 438.339079,465.095159 434.230018,465.20409 L427,454.63773 C427,454.63773 433.543167,453.923623 432.543014,449.796327 Z" id="Path" fill="url(#linearGradient-4)"></path>
                <path d="M296.689684,402.131014 L294.405364,393.338019 C292.967088,388.269257 289.014851,392.683602 284.204482,394.968114 L148.837337,459.220036 C145.254811,460.93058 143.338067,464.842436 144.208264,468.667448 L145.948699,476.270592 C146.383294,478.186627 147.48677,479.891907 149.066978,481.089487 L171.632198,498.247129 C174.748962,500.610642 179.100113,500.581202 182.183583,498.175738 L293.752701,410.983501 C296.450092,408.882032 297.607061,405.394763 296.689684,402.131014 Z" id="Path" fill="#339EF9"></path>
                <path d="M296.689684,402.131014 L294.405364,393.338019 C292.967088,388.269257 289.014851,392.683602 284.204482,394.968114 L148.837337,459.220036 C145.254811,460.93058 143.338067,464.842436 144.208264,468.667448 L145.948699,476.270592 C146.383294,478.186627 147.48677,479.891907 149.066978,481.089487 L171.632198,498.247129 C174.748962,500.610642 179.100113,500.581202 182.183583,498.175738 L293.752701,410.983501 C296.450092,408.882032 297.607061,405.394763 296.689684,402.131014 Z" id="Path" fill="url(#linearGradient-5)"></path>
                <path d="M146.645937,457.997483 L247.349956,376.99055 C248.531663,376.045607 250.121536,375.753493 251.571811,376.21485 L291.904519,389.031799 C293.479475,389.533101 294.643784,390.846051 294.931684,392.445425 C295.219584,394.044799 294.584067,395.669448 293.27936,396.669459 L179.094604,484.072932 C177.518263,485.277325 175.319093,485.311409 173.704743,484.156469 L146.816271,464.94298 C145.704269,464.134588 145.034587,462.868284 145,461.511045 C144.968016,460.153807 145.574848,458.857384 146.645937,457.997483 Z" id="Path" fill="#339EF9"></path>
                <path d="M146.645937,457.997483 L247.349956,376.99055 C248.531663,376.045607 250.121536,375.753493 251.571811,376.21485 L291.904519,389.031799 C293.479475,389.533101 294.643784,390.846051 294.931684,392.445425 C295.219584,394.044799 294.584067,395.669448 293.27936,396.669459 L179.094604,484.072932 C177.518263,485.277325 175.319093,485.311409 173.704743,484.156469 L146.816271,464.94298 C145.704269,464.134588 145.034587,462.868284 145,461.511045 C144.968016,460.153807 145.574848,458.857384 146.645937,457.997483 Z" id="Path" fill="url(#linearGradient-6)"></path>
                <polygon id="Path" fill="#FFFFFF" points="287 398.188758 284.230685 400.314683 185.434155 476 155.821918 456.771128 154 455.576788 242.350868 384"></polygon>
                <polygon id="Path" fill="#339EF9" opacity="0.13" points="283 399.538008 183.748581 476 154 456.573803 240.65891 386"></polygon>
                <polygon id="Path" fill="#339EF9" points="213.141988 454 181 438.207493 190.858012 430 223 445.78098"></polygon>
                <polygon id="Path" fill="url(#linearGradient-7)" points="213.141988 454 181 438.207493 190.858012 430 223 445.78098"></polygon>
                <path d="M280.521891,372 L278,370.404899 C278.782573,367.866592 279.659576,365.394498 280.62697,363 L283,365.036023 C282.083932,367.284597 281.256512,369.609811 280.521891,372 L280.521891,372 Z" id="Path" fill="#339EF9"></path>
                <path d="M288.029067,355 L285,352.670726 C287.866968,349.072211 291.016442,345.698777 294.419661,342.581227 L297.04239,345.344977 C293.783975,348.326375 290.770214,351.5547 288.029067,355 Z M307.557933,337.391652 L305.513928,334.193426 C309.490072,331.717221 313.740896,329.692724 318.184296,328.159036 L319.415624,331.77967 C315.262487,333.212429 311.285339,335.094725 307.557933,337.391652 Z M345.507469,329.269364 C341.130793,328.704489 336.703519,328.619483 332.30763,329.01592 L331.938232,325.262529 C336.62081,324.841933 341.336364,324.926925 346,325.515974 L345.507469,329.269364 Z" id="Shape" fill="#339EF9"></path>
                <path d="M364.38,336 C361.924286,335.220273 359.442857,334.518519 357,333.923977 L358.285714,331 C360.857143,331.623782 363.428571,332.354776 366,333.173489 L364.38,336 Z" id="Path" fill="#339EF9"></path>
                <polygon id="Path" fill="#339EF9" points="366.058 469.19199 365 457 407.319989 487.48609 547 488.562213 544.258819 496.192907 403.268331 497"></polygon>
                <polygon id="Path" fill="url(#linearGradient-8)" points="366.058 469.19199 365 457 407.319989 487.48609 547 488.562213 544.258819 496.192907 403.268331 497"></polygon>
                <path d="M617.318068,379.940097 C617.160529,384.670035 616.893924,389.387969 616.590964,394.117908 C616.445543,396.819015 616.251648,399.484107 616.021398,402.185214 C615.875977,404.178031 615.500307,406.506986 613.755256,407.443369 C613.514235,407.574214 613.257801,407.675021 612.991796,407.743492 C612.144278,407.894232 611.280057,407.930577 610.422693,407.851537 L598.558769,407.071217 C594.694324,406.692996 590.801658,406.692996 586.937214,407.071217 C579.278378,408.043615 572.237582,411.945215 564.590865,412.809569 C561.210394,413.08561 557.811772,413.061504 554.435637,412.737539 L523.327678,410.708708 C520.663533,410.678571 518.025676,410.182763 515.53554,409.244108 C512.989673,408.301862 511.142806,406.088081 510.688176,403.433726 C510.494281,401.584968 511.209267,399.748215 511.063847,397.875448 C511.081435,397.800415 511.081435,397.722387 511.063847,397.647354 C510.530637,392.653307 503.901866,388.607649 505.913522,383.985755 C506.361903,382.905312 507.307139,381.968928 507.343495,380.804451 C507.284224,379.856352 506.928444,378.950056 506.325548,378.211388 C504.580497,375.438251 502.920275,372.208928 503.635261,368.979604 C504.168471,366.686664 505.828693,364.621818 505.755983,362.304868 C505.646917,359.639776 503.332301,357.5029 503.029341,354.873823 C502.72638,352.244745 504.810747,349.435594 507.37985,348.223097 C510.032799,347.19695 512.871707,346.726868 515.717316,346.842531 L530.647198,346.386344 C533.07088,346.314314 535.833877,346.170255 537.651639,344.477561 C539.845071,342.44873 539.808716,338.955298 538.86348,336.182161 C537.918244,333.409025 536.136837,330.924006 535.227957,328.114855 C533.837416,323.488284 534.82947,318.480228 537.881889,314.717363 C538.37921,314.048699 539.043102,313.51925 539.808716,313.180734 C542.499003,312.208335 544.740909,315.353624 545.867921,317.982702 C550.138683,327.631987 556.146287,336.430862 563.597155,343.949345 C573.020986,353.013076 584.837755,359.255222 597.686243,361.956726 C601.430832,362.77306 606.884117,362.256849 611.210389,362.857095 C612.470329,362.991013 613.698969,363.331811 614.845912,363.865508 C619.814461,366.278497 617.463489,375.618325 617.318068,379.940097 Z" id="Path" fill="#FDB386"></path>
                <path d="M674.612693,390.459051 C674.612693,391.414305 674.49116,392.35791 674.41824,393.301515 C674.30886,395.118828 674.150867,396.94779 673.968567,398.730155 C673.334153,400.49517 672.310276,402.108364 670.966697,403.459829 C667.53946,406.663426 662.459371,406.954662 657.853262,406.954662 C643.115333,407.141053 628.377405,406.752738 613.639476,405.789717 C612.873816,405.789717 612.12031,405.673223 611.391111,405.603326 C609.377411,405.464992 607.433127,404.83976 605.739816,403.786013 C602.2032,401.33963 601.25524,396.609957 600.611114,392.346261 C599.310709,384.121754 598.022457,375.594362 600.076368,367.509649 C600.246779,366.662571 600.541379,365.842868 600.951407,365.074916 C601.302947,364.301913 601.850174,363.625217 602.543493,363.10616 C603.841658,362.381796 605.334212,362.041352 606.833615,362.127607 C607.781574,362.127607 608.741687,362.127607 609.689646,362.127607 C620.469643,362.011112 631.261793,363.036263 642.053943,362.814924 C648.112759,362.7606 654.149146,362.10078 660.065167,360.846168 C662.945504,360.228748 670.201037,356.291236 674.187327,356 C675.102953,367.465592 675.245038,378.975902 674.612693,390.459051 Z" id="Path" fill="#FDB386"></path>
                <path d="M675,395.077361 C674.891055,396.948973 674.733691,398.832583 674.552116,400.668202 C673.920226,402.485954 672.900424,404.147348 671.56219,405.539193 C668.148591,408.838509 663.088716,409.138447 658.500935,409.138447 C643.82165,409.330407 629.142364,408.93049 614.463079,407.938696 C613.700466,407.938696 612.949958,407.818721 612.22366,407.746736 C611.377083,407.897382 610.513821,407.933705 609.657408,407.854713 L597.806649,407.074875 C593.946493,406.696887 590.058146,406.696887 586.197989,407.074875 C578.547652,408.046673 571.514669,411.945865 563.876437,412.809686 C560.499717,413.085557 557.104866,413.061466 553.732478,412.737701 L522.659037,410.710121 C519.997849,410.680003 517.362919,410.184501 514.875545,409.246425 C512.332504,408.304761 510.487686,406.092345 510.03356,403.439628 C509.839881,401.592011 510.554074,399.756391 510.408814,397.884779 C510.426382,397.809793 510.426382,397.731813 510.408814,397.656827 C516.836549,403.211675 526.254211,403.247668 534.848735,402.983723 C549.76205,402.539815 564.784309,402.083909 579.237635,398.448662 C577.384395,394.004678 578.202817,388.905975 581.356004,385.251397 C582.71176,383.715716 584.454874,382.551957 585.93168,381.13625 C589.066866,378.052889 590.846295,373.937742 593.727276,370.554443 C595.733735,368.062082 598.63611,366.436732 601.825497,366.019383 C603.031254,365.930311 604.239909,366.149242 605.335936,366.655251 C609.887402,368.826801 610.335286,374.981526 610.068977,379.972491 C609.802668,384.963457 609.960032,390.998206 614.342029,393.505687 C614.808679,393.771865 615.304063,393.985163 615.818834,394.141555 C617.472097,394.582917 619.17874,394.796877 620.890814,394.777423 C634.629947,395.125351 648.369081,395.077361 662.132424,394.705438 C666.424795,394.492417 670.727449,394.61678 675,395.077361 L675,395.077361 Z" id="Path" fill="url(#linearGradient-9)"></path>
                <path d="M132.121419,390.619015 C140.281836,389.500981 148.585575,389.900046 156.593699,391.795116 C162.569116,393.44728 168.222139,396.054397 173.322656,399.51034 C187.231192,408.58956 198.458782,421.062286 205.888036,435.68721 C206.98561,437.874758 207.781652,440.979665 205.719178,442.355703 C203.946174,443.531804 201.59423,442.355703 199.833287,441.179602 C192.15027,436.051801 166.435681,410.600973 148.030211,418.892486 C147.523638,422.750098 152.637609,430.382994 153.252733,434.1818 C153.795489,437.627777 150.961095,440.885577 147.620128,442.120483 C144.279161,443.355389 140.588418,443.037842 137.04241,442.67325 C126.862713,441.638281 116.719201,442.743816 106.479198,442.508596 C82.5737966,441.979351 67.7022731,425.196388 69.089317,416.446196 C70.3557485,409.213174 89.1351176,395.805621 132.121419,390.619015 Z" id="Path" fill="#FDB386"></path>
                <polygon id="Path" fill="#339EF9" points="405 436.272113 471.539559 414 493 441.373546 417.351947 460"></polygon>
                <path d="M87.9645959,431.475483 C87.0351792,435.96754 85.1608604,440.216847 82.4629511,443.948377 C79.3696919,443.325035 76.1694703,443.451758 73.136698,444.31768 C68.576124,445.508978 64.0879401,447.891575 59.8651864,450.095477 C49.6551394,455.527564 39.1553459,460.411061 28.4117039,464.72462 C26.4209772,465.546616 24.3457954,466.332873 22.2344185,467 C19.5559862,456.57614 15.1401923,447.03384 10.9174387,437.467714 C8.11954023,431.366174 5.63896251,425.127563 3.48539217,418.776243 C2.54432135,415.869475 1.67564059,412.926968 1,409.877244 C18.2650301,402.87241 46.2679195,408.054558 60.9269073,405.02866 C65.058932,404.102916 69.1352381,402.949524 73.136698,401.573895 C77.3933323,400.067601 81.7565937,398.873069 86.1910394,398 C88.3024162,408.948032 90.2690129,420.896754 87.9645959,431.475483 Z" id="Path" fill="#339EF9"></path>
                <path d="M88,431 C87.058647,435.67863 85.1602566,440.104429 82.4276986,443.990946 C74.5213849,442.204225 66.688391,446.472502 59.5763747,450.39336 C49.2352019,456.051066 38.6005616,461.137395 27.7189409,465.630114 C25.7026477,466.486251 23.6008147,467.305164 21.4623218,468 C18.7494908,457.143192 14.2769857,447.204561 10,437.241113 C16.7694619,439.648062 23.9455562,440.652209 31.1038697,440.194165 C41.4175153,439.722669 51.4989817,437.166667 61.6537678,435.231053 C70.3910387,433.481556 79.2138493,432.240778 88,431 Z" id="Path" fill="url(#linearGradient-10)"></path>
                <path d="M398.386779,323 L416.471965,328.924242 C416.471965,328.924242 414.071808,334.462121 417,337.037879 C417,337.037879 396.274641,366.787879 378.849498,374 C378.849498,374 376.341334,371.295455 368.420814,372.068182 L356,362.924242 C356,362.924242 360.632304,360.734848 359.600236,357.257576 C359.600236,357.257576 384.549872,344.893939 391.414322,328.409091 C391.390321,328.409091 398.386779,329.439394 398.386779,323 Z" id="Path" fill="url(#linearGradient-11)"></path>
                <path d="M432.80637,363 L448,370.683379 C448,370.683379 445.288558,375.697003 447.558047,378.416894 C447.558047,378.416894 425.98596,404.186921 409.848701,409 C409.848701,409 407.937552,406.154768 400.890193,405.979292 L391,395.952044 C391,395.952044 395.312028,394.410354 394.774518,390.93842 C394.774518,390.93842 418.102473,382.164578 425.997904,367.311717 C426.045683,367.311717 432.077745,369.091553 432.80637,363 Z" id="Path" fill="url(#linearGradient-12)"></path>
                <path d="M418.20641,436.829567 L463.963064,422 C465.93547,423.462828 468.40051,424.046241 470.798479,423.617771 L480,434.133282 C480,434.133282 477.896795,438.447338 479.474199,440.604366 L428.555133,454 C428.555133,454 424.348724,451.548832 420.919066,452.112601 L414,442.222137 C414,442.222137 419.389462,440.837227 418.20641,436.829567 Z" id="Path" fill="url(#linearGradient-13)"></path>
                <path d="M89.020944,430.968621 C88.1421074,435.526852 86.3697915,439.838757 83.818706,443.625257 C80.8937861,442.992733 77.8677249,443.121323 75,444 L75,400.626543 C79.0249827,399.09806 83.1507896,397.88593 87.3439067,397 C89.3403796,408.109311 91.1999515,420.234053 89.020944,430.968621 Z" id="Path" fill="url(#linearGradient-14)"></path>
                <path d="M594.634318,360.715554 L606.062444,360.715205 C608.116944,360.714916 609.782495,362.380365 609.782558,364.434865 C609.782558,364.43494 609.782558,364.435016 609.782331,364.435092 L609.78104,406.741524 C609.78075,408.795934 608.115337,410.461347 606.060926,410.461637 L594.632799,410.461986 C592.5783,410.462276 590.912748,408.796826 590.912686,406.742326 C590.912686,406.742251 590.912686,406.742175 590.912913,406.742099 L590.914204,364.435667 C590.914494,362.381257 592.579907,360.715844 594.634318,360.715554 Z" id="Rectangle" fill="#339EF9" transform="translate(600.347622, 385.588596) rotate(4.120000) translate(-600.347622, -385.588596) "></path>
                <path d="M594.634318,360.715554 L606.062444,360.715205 C608.116944,360.714916 609.782495,362.380365 609.782558,364.434865 C609.782558,364.43494 609.782558,364.435016 609.782331,364.435092 L609.78104,406.741524 C609.78075,408.795934 608.115337,410.461347 606.060926,410.461637 L594.632799,410.461986 C592.5783,410.462276 590.912748,408.796826 590.912686,406.742326 C590.912686,406.742251 590.912686,406.742175 590.912913,406.742099 L590.914204,364.435667 C590.914494,362.381257 592.579907,360.715844 594.634318,360.715554 Z" id="Rectangle" fill="url(#linearGradient-15)" transform="translate(600.347622, 385.588596) rotate(4.120000) translate(-600.347622, -385.588596) "></path>
                <circle id="Oval" fill="#339EF9" cx="599" cy="386" r="15"></circle>
                <circle id="Oval" fill="url(#linearGradient-16)" cx="599" cy="386" r="15"></circle>
                <circle id="Oval" fill="#339EF9" cx="600" cy="386" r="13"></circle>
                <circle id="Oval" fill="url(#linearGradient-17)" cx="600" cy="386" r="13"></circle>
                <path d="M573.109489,309 L573.109489,304.441402 C570.949248,304.440086 568.832622,303.755285 567,302.464775 L567.952555,299.450417 C569.682765,300.708106 571.697302,301.377155 573.755474,301.377629 C576.591241,301.377629 578.507299,299.536895 578.507299,296.967279 C578.507299,294.397663 576.941606,292.952254 573.99635,291.605676 C569.912409,289.802003 567.427007,287.726544 567.427007,283.810351 C567.427007,279.894157 569.781022,277.22571 573.448905,276.546244 L573.448905,272 L575.934307,272 L575.934307,276.373289 C577.75482,276.385732 579.541934,276.926004 581.124088,277.942237 L580.127737,280.919533 C578.605452,279.896691 576.8629,279.366681 575.091241,279.387646 C572.014599,279.387646 570.854015,281.463105 570.854015,283.266778 C570.854015,285.614023 572.332117,286.775292 575.813869,288.40601 C579.919708,290.29616 582,292.643406 582,296.646077 C582,300.216361 579.810219,303.539566 575.693431,304.305509 L575.693431,309 L573.109489,309 Z" id="Path" fill="#339EF9"></path>
                <path d="M487.708791,329 L487.708791,326.765363 C486.397508,326.76432 485.112744,326.431457 484,325.804469 L484.581044,324.340782 C485.618917,324.950457 486.829477,325.276355 488.067308,325.27933 C489.785714,325.27933 490.947802,324.385475 490.947802,323.145251 C490.947802,321.905028 489.995879,321.189944 488.203297,320.541899 C485.730769,319.659218 484.222527,318.653631 484.222527,316.75419 C484.254033,314.907279 485.832433,313.384029 487.869505,313.234637 L487.869505,311 L489.365385,311 L489.365385,313.122905 C490.471588,313.133826 491.556497,313.399145 492.517857,313.893855 L491.912088,315.335196 C490.99148,314.832991 489.933729,314.573676 488.858516,314.586592 C487.004121,314.586592 486.299451,315.592179 486.299451,316.47486 C486.299451,317.592179 487.18956,318.173184 489.291209,318.96648 C491.763736,319.882682 493,321.022346 493,322.96648 C492.958484,324.902067 491.313103,326.499828 489.179945,326.675978 L489.179945,328.910615 L487.708791,329 Z" id="Path" fill="#339EF9"></path>
                <path d="M567.703704,448 L567.703704,445.766749 C566.394589,445.763342 565.112289,445.430867 564,444.806452 L564.580247,443.343672 C565.617288,443.95181 566.825801,444.277403 568.061728,444.281638 C569.777778,444.281638 570.938272,443.388337 570.938272,442.137717 C570.938272,440.887097 569.987654,440.194789 568.209877,439.53598 C565.740741,438.665012 564.222222,437.66005 564.222222,435.761787 C564.247377,433.911718 565.825271,432.382972 567.864198,432.233251 L567.864198,430 L569.37037,430 L569.37037,432.121588 C570.46978,432.130981 571.548628,432.392214 572.506173,432.880893 L571.901235,434.32134 C570.981455,433.831248 569.931684,433.576509 568.864198,433.584367 C567,433.584367 566.296296,434.58933 566.296296,435.460298 C566.296296,436.576923 567.185185,437.168734 569.296296,437.950372 C571.765432,438.866005 573,440.004963 573,441.947891 C572.964767,443.886576 571.320029,445.489729 569.185185,445.666253 L569.185185,447.899504 L567.703704,448 Z" id="Path" fill="#339EF9"></path>
            </g>
        </g>
    </g>
</svg>