<?xml version="1.0" encoding="UTF-8"?>
<svg width="665px" height="228px" viewBox="0 0 665 228" version="1.1" xmlns="http://www.w3.org/2000/svg" xmlns:xlink="http://www.w3.org/1999/xlink">
    <!-- Generator: Sketch 55.2 (78181) - https://sketchapp.com -->
    <title>diversity_2</title>
    <desc>Created with Sketch.</desc>
    <defs>
        <linearGradient x1="3.18450526e-13%" y1="50.0059433%" x2="100%" y2="50.0059433%" id="linearGradient-1">
            <stop stop-color="#E5C6D6" offset="0%"></stop>
            <stop stop-color="#EAD4D0" offset="42%"></stop>
            <stop stop-color="#F0E9CB" offset="100%"></stop>
        </linearGradient>
        <linearGradient x1="0%" y1="50.0426743%" x2="100%" y2="50.0426743%" id="linearGradient-2">
            <stop stop-color="#E5C6D6" offset="0%"></stop>
            <stop stop-color="#EAD4D0" offset="42%"></stop>
            <stop stop-color="#F0E9CB" offset="100%"></stop>
        </linearGradient>
        <linearGradient x1="51.3556947%" y1="-48.2851011%" x2="48.58541%" y2="240.201636%" id="linearGradient-3">
            <stop stop-color="#010101" stop-opacity="0" offset="0%"></stop>
            <stop stop-color="#010101" offset="95%"></stop>
        </linearGradient>
        <linearGradient x1="46.3878478%" y1="3.81158867%" x2="52.0132291%" y2="74.4452746%" id="linearGradient-4">
            <stop stop-color="#010101" stop-opacity="0" offset="0%"></stop>
            <stop stop-color="#010101" offset="95%"></stop>
        </linearGradient>
        <linearGradient x1="39.0849313%" y1="125.960543%" x2="73.0784549%" y2="-92.1943683%" id="linearGradient-5">
            <stop stop-color="#010101" stop-opacity="0" offset="0%"></stop>
            <stop stop-color="#010101" offset="95%"></stop>
        </linearGradient>
        <linearGradient x1="9.66599085%" y1="90.7350858%" x2="148.836784%" y2="-46.7150937%" id="linearGradient-6">
            <stop stop-color="#010101" stop-opacity="0" offset="0%"></stop>
            <stop stop-color="#010101" offset="95%"></stop>
        </linearGradient>
        <linearGradient x1="13.5695863%" y1="1.8809982%" x2="153.299831%" y2="184.572948%" id="linearGradient-7">
            <stop stop-color="#010101" stop-opacity="0" offset="0%"></stop>
            <stop stop-color="#010101" offset="95%"></stop>
        </linearGradient>
        <linearGradient x1="0.0124899593%" y1="50.0445553%" x2="100.072567%" y2="50.0445553%" id="linearGradient-8">
            <stop stop-color="#E5C6D6" offset="0%"></stop>
            <stop stop-color="#EAD4D0" offset="42%"></stop>
            <stop stop-color="#F0E9CB" offset="100%"></stop>
        </linearGradient>
        <linearGradient x1="41.3607013%" y1="116.398597%" x2="114.713322%" y2="-527.576723%" id="linearGradient-9">
            <stop stop-color="#010101" stop-opacity="0" offset="0%"></stop>
            <stop stop-color="#010101" offset="95%"></stop>
        </linearGradient>
        <linearGradient x1="13.3352926%" y1="42.868366%" x2="78.6046171%" y2="58.5588349%" id="linearGradient-10">
            <stop stop-color="#E5C6D6" offset="0%"></stop>
            <stop stop-color="#EAD4D0" offset="42%"></stop>
            <stop stop-color="#F0E9CB" offset="100%"></stop>
        </linearGradient>
        <linearGradient x1="49.8756115%" y1="63.5029551%" x2="50.9528112%" y2="-1.22298365%" id="linearGradient-11">
            <stop stop-color="#010101" stop-opacity="0" offset="0%"></stop>
            <stop stop-color="#010101" offset="95%"></stop>
        </linearGradient>
        <linearGradient x1="29.7554558%" y1="100.810317%" x2="140.360091%" y2="-187.488478%" id="linearGradient-12">
            <stop stop-color="#010101" stop-opacity="0" offset="0%"></stop>
            <stop stop-color="#010101" offset="95%"></stop>
        </linearGradient>
        <linearGradient x1="-0.0255051652%" y1="50.025364%" x2="100.003465%" y2="50.025364%" id="linearGradient-13">
            <stop stop-color="#E5C6D6" offset="0%"></stop>
            <stop stop-color="#EAD4D0" offset="42%"></stop>
            <stop stop-color="#F0E9CB" offset="100%"></stop>
        </linearGradient>
        <linearGradient x1="26.501522%" y1="-143.358558%" x2="72.419841%" y2="248.717818%" id="linearGradient-14">
            <stop stop-color="#010101" stop-opacity="0" offset="0%"></stop>
            <stop stop-color="#010101" offset="95%"></stop>
        </linearGradient>
        <linearGradient x1="51.0052708%" y1="36.4621484%" x2="45.0289045%" y2="94.8071658%" id="linearGradient-15">
            <stop stop-color="#010101" stop-opacity="0" offset="0%"></stop>
            <stop stop-color="#010101" offset="95%"></stop>
        </linearGradient>
        <linearGradient x1="42.2901859%" y1="78.5088852%" x2="71.9696847%" y2="-9.49553523%" id="linearGradient-16">
            <stop stop-color="#010101" stop-opacity="0" offset="0%"></stop>
            <stop stop-color="#010101" offset="95%"></stop>
        </linearGradient>
        <linearGradient x1="29.1973586%" y1="87.4060288%" x2="121.454713%" y2="-131.942255%" id="linearGradient-17">
            <stop stop-color="#010101" stop-opacity="0" offset="0%"></stop>
            <stop stop-color="#010101" offset="95%"></stop>
        </linearGradient>
        <linearGradient x1="49.7386847%" y1="53.578374%" x2="82.4211964%" y2="-12.3083367%" id="linearGradient-18">
            <stop stop-color="#010101" stop-opacity="0" offset="0%"></stop>
            <stop stop-color="#010101" offset="95%"></stop>
        </linearGradient>
        <linearGradient x1="50.2675593%" y1="56.1215639%" x2="15.1621368%" y2="-26.368959%" id="linearGradient-19">
            <stop stop-color="#010101" stop-opacity="0" offset="0%"></stop>
            <stop stop-color="#010101" offset="95%"></stop>
        </linearGradient>
        <linearGradient x1="30.6979885%" y1="85.2487129%" x2="93.7619122%" y2="-64.5438667%" id="linearGradient-20">
            <stop stop-color="#010101" stop-opacity="0" offset="0%"></stop>
            <stop stop-color="#010101" offset="95%"></stop>
        </linearGradient>
        <linearGradient x1="51.1097739%" y1="18.7082451%" x2="49.9973223%" y2="67.1407655%" id="linearGradient-21">
            <stop stop-color="#010101" stop-opacity="0" offset="0%"></stop>
            <stop stop-color="#010101" offset="95%"></stop>
        </linearGradient>
        <linearGradient x1="-0.0897924774%" y1="49.964122%" x2="99.9053098%" y2="49.964122%" id="linearGradient-22">
            <stop stop-color="#010101" stop-opacity="0" offset="0%"></stop>
            <stop stop-color="#010101" offset="95%"></stop>
        </linearGradient>
    </defs>
    <g id="Desktop-hifi" stroke="none" stroke-width="1" fill="none" fill-rule="evenodd">
        <g id="Desktop-Transparent" transform="translate(-180.000000, -1141.000000)" fill-rule="nonzero">
            <g id="diversity_2" transform="translate(180.000000, 1141.000000)">
                <path d="M659.223246,155.717893 C651.068759,177.614656 634.74936,197.372597 612.307011,206.362597 C600.721171,210.864258 584.236082,211.728001 571.977786,213.789178 C560.471455,215.849178 546.751359,215.467893 535.084939,216.617893 C516.424672,218.487893 497.674355,220.037893 478.974065,221.307893 C476.382639,221.507893 473.84124,221.707893 471.249815,221.867893 C438.972054,223.977893 406.694293,225.287893 374.336489,226.087893 L374.106362,226.087893 C371.9952,226.087893 369.844017,226.207893 367.732855,226.247893 C337.169371,226.91456 306.592546,227.231226 276.002381,227.197893 C255.177589,227.197893 234.376143,227.131226 213.598043,226.997893 C198.469719,226.917893 183.341395,226.837893 168.183054,226.407893 C137.015904,225.487893 105.953684,220.189178 75.6269969,213.789178 C69.6937321,212.599178 63.7856099,214.147893 57.9023727,212.597893 C41.5833933,208.267893 25.1843698,202.337893 12.2872732,191.357893 C2.5504746,183.068426 0.963087313,171.455092 0.875936389,159.075462 C0.847649588,155.057373 1.24723791,150.856369 1.83075297,146.756858 C4.02195866,131.326858 6.21393143,118.497893 18.8208683,109.337893 C31.4278052,100.177893 45.8357331,93.6678929 58.6127636,84.7978929 C83.0962354,67.9678929 101.046112,43.2678929 124.288901,24.7978929 C142.749059,10.0778929 168.423186,-1.7021071 192.496432,3.3578929 C215.188919,8.1278929 234.649627,23.9178929 257.532218,28.4178929 C287.548734,34.2978929 316.394606,16.5578929 345.580666,7.3278929 C382.602096,-4.17194947 422.515244,-2.08323855 458.132597,13.2178929 C491.440925,27.6978929 519.85656,53.3578929 555.115961,62.1078929 C587.673876,70.1778929 626.755381,64.5278929 650.39839,88.2778929 C667.377733,105.397893 667.377733,133.82113 659.223246,155.717893 Z" id="Path" fill="#339EF9" opacity="0.288853237"></path>
                <path d="M286.07,226.97 C279.98,227.41 274.34,227.2 268.22,227.25 C268.58,222.52 270.11,201.46 270.46,196.73 C270.61,194.73 270.87,192.49 272.41,191.19 C273.350504,190.49997 274.452276,190.062705 275.61,189.92 C277.96,189.48 281.05,188.92 283.42,189.46 C285.42,189.92 285.35,191.67 285.42,193.4 C285.73,199.06 284.83,221.45 286.07,226.97 Z" id="Path" fill="url(#linearGradient-1)"></path>
                <path d="M196.36,192.16 L195.78,226.52 L211.56,227.31 C211.56,227.31 211.32,200.58 206.29,196.7 C203.386508,194.421201 199.982984,192.865109 196.36,192.16 Z" id="Path" fill="url(#linearGradient-2)"></path>
                <path d="M215.73,105.23 C213.54,111.57 213.73,118.44 213.83,125.14 C214.152125,136.047331 213.868355,146.964134 212.98,157.84 C212.43,163.68 211.59,169.56 212.3,175.37 C213.01,181.18 215.52,187.09 220.3,190.37 C223.72,192.71 227.94,193.55 232.06,193.99 C236.270766,194.393849 240.500217,194.570772 244.73,194.52 C249.267558,194.681233 253.806589,194.244141 258.23,193.22 C262.61,192.04 266.82,189.68 269.42,185.97 C271.82,182.54 272.67,178.28 273.32,174.14 C276.398203,154.63997 276.431938,134.780375 273.42,115.27 C273.123934,112.724464 272.491762,110.229402 271.54,107.85 C270.08,104.55 267.54,101.85 265.05,99.24 C262.56,96.63 259.75,93.7 256.3,92.24 C253.52557,91.159304 250.577385,90.593388 247.6,90.57 C234.56,89.87 220.61,91.01 215.73,105.23 Z" id="Path" fill="#FFE368"></path>
                <path d="M267.51,151.68 L266.17,154.52 C265.696431,152.110103 265.581858,149.643419 265.83,147.2 L266.31,138.15 C266.68267,134.200991 266.56848,130.221145 265.97,126.3 C265.2,122.41 263.36,118.59 260.17,116.24 C256.08,113.24 250.6,113.07 245.51,113.1 C240.81,113.1 235.76,113.32 232,116.1 C230.000593,117.770284 228.308472,119.77714 227,122.03 C225.353621,124.255186 224.089636,126.73922 223.26,129.38 C222.851066,131.210814 222.666376,133.084579 222.71,134.96 C222.56,144.54 223.05,154.3 220.44,163.53 C219.58,166.53 218.44,169.53 218.07,172.69 C217.960676,173.229903 218.060776,173.791176 218.35,174.26 C218.680842,174.581364 219.103938,174.791164 219.56,174.86 C223.188245,175.684292 226.861009,176.298646 230.56,176.7 L250.31,179.24 C252.491019,179.639057 254.720495,179.699769 256.92,179.42 C258.43,179.16 259.92,178.57 261.39,178.3 C266.39,177.39 269.06,174.73 268.31,169.58 C267.579902,163.643078 267.31243,157.658382 267.51,151.68 L267.51,151.68 Z" id="Path" fill="url(#linearGradient-3)"></path>
                <path d="M220.29,168.62 C208.721669,171.782018 199.403415,180.354812 195.29,191.62 C201.61,195.62 208.61,200.71 209.12,208.18 C209.19,209.11 209.22,226.44 209.97,226.98 C210.44056,227.249256 210.978558,227.377681 211.52,227.35 C231.38,228.17 251.243333,228.14 271.11,227.26 C271.23,223.26 271.34,202.95 271.45,198.92 C271.421639,198.335037 271.534843,197.751868 271.78,197.22 C272.177529,196.651519 272.734164,196.213169 273.38,195.96 C277.63471,193.797384 282.055449,191.97826 286.6,190.52 C284.75334,185.66987 282.253624,181.094347 279.17,176.92 C276.31,173.04 261.25,164.69 236.36,164.99 C230.73,165.05 225.73,167.18 220.29,168.62 Z" id="Path" fill="#339EF9"></path>
                <path d="M188.57,226.43 C157.42,225.51 126.36,223.2 96.05,216.8 C96.8,211.8 96.96,206.74 97.72,201.8 C98.72,195.36 101.14,188.72 106.35,184.8 C112.04,180.58 119.44,180.46 125.88,178.04 C132.64,175.53 140.88,177.56 148.04,178.04 C156.99,178.63 166.45,179.43 173.69,184.68 C178.69,188.3 182.17,193.79 184.31,199.6 C186.45,205.41 187.31,211.6 188.01,217.77 C188.09,218.15 188.49,223.32 188.57,226.43 Z" id="Path" fill="#339EF9"></path>
                <path d="M129.14,171.19 C123.325343,171.548629 117.541813,170.102746 112.58,167.05 C111.312197,166.289896 110.140444,165.380025 109.09,164.34 C107.882936,163.03452 106.801495,161.618267 105.86,160.11 L99.86,151.11 C98.4916805,149.303171 97.4462647,147.273237 96.77,145.11 C96.1144289,142.888416 96.6639306,140.485767 98.22,138.77 C96.66,132.85 95.88,125.48 98.84,120.12 C100.7,116.74 104.06,114.46 106.53,111.49 C109.45,107.96 111.31,103.29 115.34,101.11 C119.75,98.73 125.13,100.18 130.13,100.51 C139.03,101.08 148.07,97.86 156.77,99.84 C158.861111,100.282726 160.849472,101.117431 162.63,102.3 C166.87,105.22 169.04,110.3 172.44,114.15 C175.84,118 180.7,121.15 181.66,126.15 C182.66,131.46 178.84,136.45 178.2,141.82 C177.83,144.87 178.52,147.98 178.03,151.01 C177.16,156.37 172.59,160.65 167.4,162.21 C164.12,163.21 160.4,163.37 157.89,165.72 C155.81,167.72 154.89,171.04 152.17,172.01 C151.093115,172.307045 149.967619,172.385252 148.86,172.24 C142.63,171.84 135.39,170.79 129.14,171.19 Z" id="Path" fill="#606161"></path>
                <path d="M129.14,171.19 C123.325343,171.548629 117.541813,170.102746 112.58,167.05 C111.312197,166.289896 110.140444,165.380025 109.09,164.34 C107.882936,163.03452 106.801495,161.618267 105.86,160.11 L99.86,151.11 C98.4916805,149.303171 97.4462647,147.273237 96.77,145.11 C96.1144289,142.888416 96.6639306,140.485767 98.22,138.77 C96.66,132.85 95.88,125.48 98.84,120.12 C100.7,116.74 104.06,114.46 106.53,111.49 C109.45,107.96 111.31,103.29 115.34,101.11 C119.75,98.73 125.13,100.18 130.13,100.51 C139.03,101.08 148.07,97.86 156.77,99.84 C158.861111,100.282726 160.849472,101.117431 162.63,102.3 C166.87,105.22 169.04,110.3 172.44,114.15 C175.84,118 180.7,121.15 181.66,126.15 C182.66,131.46 178.84,136.45 178.2,141.82 C177.83,144.87 178.52,147.98 178.03,151.01 C177.16,156.37 172.59,160.65 167.4,162.21 C164.12,163.21 160.4,163.37 157.89,165.72 C155.81,167.72 154.89,171.04 152.17,172.01 C151.093115,172.307045 149.967619,172.385252 148.86,172.24 C142.63,171.84 135.39,170.79 129.14,171.19 Z" id="Path" fill="url(#linearGradient-4)"></path>
                <path d="M130.48,177.03 C129.86648,178.134281 129.42156,179.324108 129.16,180.56 C128.996686,182.064531 129.319071,183.581844 130.08,184.89 C131.96883,188.148172 135.36991,190.237675 139.13,190.45 C142.863754,190.597358 146.504581,189.263946 149.26,186.74 C150.450824,185.80085 151.295199,184.492068 151.66,183.02 C151.769596,181.728178 151.626949,180.427371 151.24,179.19 C150.650789,176.605557 150.368837,173.960575 150.4,171.31 C150.4,169.31 150.6,167.1 149.58,165.31 C148.43,163.31 146.09,162.45 143.87,162.01 C140.76,161.41 135.02,160.48 133.96,164.45 C132.8,168.78 132.42,172.91 130.48,177.03 Z" id="Path" fill="#775339"></path>
                <path d="M131,176.94 C131.046002,177.150819 131.11648,177.35554 131.21,177.55 C131.870786,178.725521 132.730149,179.777734 133.75,180.66 C135.059927,181.676094 136.710799,182.148795 138.36,181.98 C141.235215,181.754836 143.933167,180.501709 145.96,178.45 C149.13,175.35 152.1,169.67 149.58,165.34 C148.43,163.34 146.09,162.48 143.87,162.04 C140.76,161.44 135.02,160.51 133.96,164.48 C133.09,167.71 132.63,171.04 131.58,174.22 C131.23,175.31 130.8,176.01 131,176.94 Z" id="Path" fill="url(#linearGradient-5)"></path>
                <path d="M119.73,141.41 C118.73,140.97 117.28,140.89 116.64,141.82 C116.446252,142.151071 116.323645,142.518894 116.28,142.9 C115.7,146.54 117.34,150.61 120.61,152.31 C120.931166,152.509069 121.302155,152.613085 121.68,152.610067 C122.56,152.53 123.02,151.54 123.2,150.68 C124.01,146.99 123.53,142.97 119.73,141.41 Z" id="Path" fill="#775339"></path>
                <path d="M159.34,143.21 C159.682289,142.648817 160.130643,142.159704 160.66,141.77 C161.205073,141.377153 161.925579,141.326795 162.52,141.64 C163.048249,142.100039 163.37201,142.751159 163.42,143.45 C163.66,144.76 163.85,146.24 163.09,147.35 C162.679827,147.899223 162.140585,148.338861 161.52,148.63 C160.955884,149.006722 160.263713,149.140109 159.6,149 C159.025083,148.742736 158.575587,148.268068 158.35,147.68 C158.154235,147.318829 158.03829,146.919839 158.01,146.51 C158.173573,145.316929 158.630553,144.183067 159.34,143.21 L159.34,143.21 Z" id="Path" fill="#775339"></path>
                <path d="M124.06,155.99 C126.88,161.83 131.31,167.49 137.59,169.09 C143.87,170.69 151.02,167.5 155.16,162.32 C159.3,157.14 160.95,150.32 161.23,143.72 C161.55,136.21 159.93,128.03 154.3,123.04 C150.50961,119.862221 145.672527,118.208274 140.73,118.4 C135.800795,118.632735 130.999538,120.045677 126.73,122.52 C114.3,129.3 119.06,145.64 124.06,155.99 Z" id="Path" fill="#775339"></path>
                <path d="M119.73,141.41 C119.73,141.41 114.95,129.32 128.65,119.04 C142.35,108.76 157.42,121.33 159.71,130.46 C162,139.59 161.29,141.52 161.29,141.52 C161.29,141.52 156.66,125.99 144.22,125.76 C131.78,125.53 125.13,131 119.73,141.41 Z" id="Path" fill="#339EF9"></path>
                <path d="M119.65,146.62 C119.65,146.13 119.75,145.62 119.65,145.15 C119.55,144.68 119.27,144.15 118.78,144.1 C118.380898,144.122866 118.039916,144.395652 117.93,144.78 C117.817415,145.155067 117.817415,145.554933 117.93,145.93 C118.174545,146.860439 118.509472,147.76474 118.93,148.63 C119.12,149.04 119.34,149.51 119.78,149.63 C120.110139,149.724109 120.465274,149.628695 120.703796,149.381803 C120.942319,149.134912 121.025434,148.776699 120.92,148.45 C120.73,147.79 119.73,147.68 119.65,146.62 Z" id="Path" fill="url(#linearGradient-6)"></path>
                <path d="M161.98,144.52 C161.860445,144.242322 161.860445,143.927678 161.98,143.65 C162.155459,143.406989 162.416159,143.239141 162.71,143.18 C162.81368,143.426272 162.858204,143.693414 162.84,143.96 C162.84,144.56 162.84,145.15 162.84,145.75 C162.852405,146.020413 162.818586,146.290961 162.74,146.55 C162.615747,146.913883 162.343265,147.208164 161.99,147.36 C161.7,147.49 161.28,147.46 161.15,147.16 C160.92,146.64 161.48,146.23 161.8,145.95 C162.27,145.52 162.18,145.13 161.98,144.52 Z" id="Path" fill="url(#linearGradient-7)"></path>
                <path d="M231.86,161.3 C229.93,165.59 227.77,170.22 228.86,174.8 C230.03,179.8 235.14,183.25 240.24,183.240022 C245.34,183.23 250.14,180.12 252.9,175.83 C254.588551,173.49761 255.305597,170.600744 254.9,167.75 C254.49,165.75 253.34,164.03 252.9,162.08 C251.9,158.01 253.9,153.51 252.35,149.62 C251.1,146.45 247.8,144.56 244.51,143.62 C242.565851,143.004213 240.489214,142.938453 238.51,143.43 C234.86,144.54 234.29,147.18 234.51,150.43 C234.67,154.29 233.41,157.84 231.86,161.3 Z" id="Path" fill="url(#linearGradient-8)"></path>
                <path d="M235.73,160.97 C237.190277,163.083221 239.368855,164.593654 241.86,165.22 C244.403826,166.042389 247.193945,165.374767 249.09,163.49 C251.638137,161.192144 253.091889,157.921201 253.09,154.49 C253.146588,153.323108 252.792783,152.173239 252.09,151.24 C251.486441,150.625202 250.736168,150.17435 249.91,149.93 C245.48037,148.426853 240.608234,149.011509 236.66,151.52 C233.21,153.67 233.62,157.8 235.73,160.97 Z" id="Path" fill="url(#linearGradient-9)"></path>
                <path d="M225.81,147.7 C228.65,152.7 232.89,157.11 238.28,158.78 C244.601018,160.599482 251.405357,158.632056 255.78,153.72 C257.601619,151.513489 259.093799,149.054593 260.21,146.42 C262.83,140.75 264.83,134.66 264.93,128.42 C265.03,122.18 263.05,115.73 258.68,111.48 C255.417529,108.497212 251.354182,106.533319 246.99,105.83 C241.31,104.77 235.2,105.32 230.13,108.26 C227.00272,110.071111 224.459208,112.739544 222.8,115.95 C221.15,119.18 221.45,121.73 221.34,125.14 C221.07,133.21 221.78,140.58 225.81,147.7 Z" id="Path" fill="url(#linearGradient-10)"></path>
                <path d="M218.58,125.77 C218.545296,126.115827 218.614955,126.464123 218.78,126.77 C219.195577,127.21219 219.798202,127.427945 220.4,127.35 C223.696943,127.405162 226.993968,127.24482 230.27,126.87 C230.749413,124.884341 231.010958,122.852341 231.05,120.81 C231.729947,122.528252 232.128394,124.3449 232.23,126.19 C237.147505,125.760203 242.086029,125.619961 247.02,125.77 C246.389502,123.959716 246.231178,122.018526 246.56,120.13 C246.701454,121.907885 247.190714,123.640679 248,125.23 C248.134961,125.570178 248.36386,125.864973 248.66,126.08 C249.282687,126.330333 249.98346,126.297484 250.58,125.99 C254.025013,124.847725 257.690563,124.532556 261.28,125.07 L261.47,122.71 C262.198012,123.995386 262.791166,125.352603 263.24,126.76 C264.593249,125.781613 266.287523,125.398686 267.93,125.7 L266.56,117.5 C266.379386,113.371465 264.181066,109.59544 260.68,107.4 C258.576283,105.559586 256.283484,103.947253 253.84,102.59 C249.587144,100.532044 244.803692,99.8337299 240.14,100.59 C235.484948,101.357149 231.050509,103.120691 227.14,105.76 C225.671599,106.63319 224.384886,107.780708 223.35,109.14 C222.35,110.54 222.35,112.08 221.7,113.58 C220.02,117.63 218.58,121.29 218.58,125.77 Z" id="Path" fill="#FFE368"></path>
                <path d="M491.51,221.89 C459.25,224 426.95,225.31 394.61,226.11 C394.494291,226.04542 394.400331,225.94798 394.34,225.83 C394.207161,225.555735 394.138753,225.25474 394.14,224.95 C394.053741,219.624666 394.425106,214.301765 395.25,209.04 C395.81,205.62 396.56,202.12 398.43,199.22 C400.3,196.32 404.2,192.69 407.94,192.5 C411.84,192.34 415.94,193.29 419.94,193.25 C424.72,193.25 429.49,192.81 434.26,192.34 C443.65,191.42 452.96,189.95 462.39,189.39 C466.2,189.19 470.1,189.07 473.72,187.76 C475.43,187.13 477.26,186.21 479.01,186.81 C479.701405,187.076572 480.346098,187.451237 480.92,187.92 C483.35,189.79 485.81,191.66 487.4,194.25 C489.23,197.19 489.79,200.69 490.27,204.11 C491.11,210 491.91,215.96 491.51,221.89 Z" id="Path" fill="#339EF9"></path>
                <path d="M491.47,221.89 C459.21,224 426.95,225.31 394.61,226.11 L394.38,226.11 C394.38,226.11 394.3,226.11 394.26,225.99 C394.129996,225.715909 394.074797,225.41231 394.1,225.11 C394.000511,219.785813 394.358493,214.462919 395.17,209.2 C395.73,205.74 396.48,202.28 398.39,199.34 C400.3,196.4 404.12,192.81 407.86,192.65 C411.76,192.46 415.86,193.41 419.86,193.37 C424.64,193.37 429.41,192.97 434.18,192.5 C443.57,191.5 452.92,190.11 462.31,189.5 C466.12,189.26 470.06,189.18 473.64,187.87 C475.35,187.23 477.22,186.32 478.93,186.87 C479.622882,187.151103 480.267382,187.539153 480.84,188.02 C483.27,189.85 485.73,191.76 487.33,194.34 C489.15,197.25 489.71,200.75 490.23,204.17 C491.03,210.08 491.83,216 491.47,221.89 Z" id="Path" fill="url(#linearGradient-11)"></path>
                <path d="M424.15,121.29 C413.160931,134.601122 409.479489,152.491503 414.32,169.06 C415.42,172.7 416.95,176.49 416.05,180.19 C414.98,184.6 410.82,187.46 408.14,191.13 C407.72292,191.601469 407.494962,192.210545 407.499918,192.84 C407.59,193.64 408.36,194.17 409.08,194.53 C411.005978,195.501667 413.107583,196.076378 415.26,196.22 C417.19,196.35 419.18,196.13 421.01,196.76 C422.497763,197.387592 423.877871,198.244676 425.1,199.3 C430.84,203.58 437.58,206.3 444.23,208.93 C446.61,209.88 449.09,210.84 451.65,210.67 C453.654553,210.452425 455.586795,209.796965 457.31,208.75 C464.362866,204.859993 469.876813,198.679292 472.94,191.23 C473.176104,190.366211 473.684632,189.601664 474.39,189.05 C475.61,188.33 477.24,189.05 478.54,188.52 C480.75,187.57 479.98,184.1 478.2,182.52 C476.42,180.94 473.91,179.87 473.04,177.64 C471.97,174.88 473.93,171.99 475.11,169.28 C477.31,164.23 476.85,158.47 476.28,152.99 C475.03,141.06 472.9,128.13 464.04,120.05 C460.46,116.8 456.04,114.62 451.61,112.71 C446.96,110.71 441.02,108.71 436.22,111.3 C431.632386,113.88251 427.54449,117.265947 424.15,121.29 Z" id="Path" fill="#339EF9"></path>
                <path d="M420.93,163.36 C416.93,153.87 417.93,142.59 425.3,135.36 C422.64,137.07 419.65,141.13 418.57,145.81 C417.78,149.19 417.78,153.29 417.7,156.76 C417.560137,164.620425 420.286565,172.262955 425.37,178.26 L426.77,175.93 C431.187153,182.009096 436.246341,187.594654 441.86,192.59 C442.510205,193.083932 443.042959,193.715724 443.42,194.44 C443.680928,195.270135 443.782712,196.142086 443.72,197.01 C443.767816,200.307858 444.954938,203.487647 447.08,206.01 C447.384797,206.421798 447.801242,206.737602 448.28,206.92 C448.775089,207.014927 449.286671,206.973447 449.76,206.8 C455.564917,205.130204 460.670843,201.620976 464.31,196.8 C460.458499,199.316325 456.064754,200.882581 451.49,201.37 C450.514785,201.555497 449.506591,201.451201 448.59,201.07 C447.662048,200.494151 446.994887,199.579496 446.73,198.52 C445.960244,195.742586 446.319699,192.773485 447.73,190.26 C449.126758,187.775364 450.844885,185.485649 452.84,183.45 L457.68,178.08 C458.515166,177.221788 459.246827,176.268614 459.86,175.24 C460.463435,173.960551 460.926147,172.619355 461.24,171.24 C462.24,167.74 463.72,164.39 464.78,160.91 C465.84,157.43 466.46,153.69 465.63,150.14 C464.8,146.59 462.26,143.29 458.75,142.33 C457.267806,141.997897 455.745651,141.880031 454.23,141.98 L439.7,142.2 C437.618453,142.102825 435.536863,142.390993 433.56,143.05 C430.21,144.42 426.35,148.5 424.14,151.32 C423.216116,152.605619 422.637662,154.106846 422.46,155.68 C422.08,157.19 420.33,161.94 420.93,163.36 Z" id="Path" fill="url(#linearGradient-12)"></path>
                <path d="M442.37,133.3 C443.081877,132.893274 443.890244,132.686 444.71,132.7 C445.599963,132.88388 446.428987,133.289792 447.12,133.88 C452.23,137.39 459.04,139.26 461.87,144.79 C463.51,148.01 463.39,151.79 463.08,155.42 C462.58,161.12 461.64,166.9 458.93,171.93 C456.22,176.96 451.47,181.18 445.81,181.93 C438.39,182.93 431.18,177.83 427.56,171.26 C424.45,165.65 420.73,154.52 424.47,148.52 C428.54,142.07 435.54,136.52 442.37,133.3 Z" id="Path" fill="url(#linearGradient-13)"></path>
                <path d="M456.93,137.72 C458.17,138.66 464.08,145.03 465.5,145.72 C466.92,146.41 467.93,121.51 449.5,113.46 C448.24,112.91 446.62,112.26 445.71,113.3 C445.02,114.08 445.27,115.3 445.5,116.3 C446.091062,119.024948 446.409298,121.801983 446.45,124.59 C446.51,126.65 445.83,129.77 446.84,131.59 C448.63,134.78 454.08,135.58 456.93,137.72 Z" id="Path" fill="url(#linearGradient-14)"></path>
                <path d="M388.01,226.27 C357.463333,226.936667 326.903333,227.253333 296.33,227.22 C296.52,220.38 296.88,211.51 298,202.76 C299.122663,194.451871 303.946353,187.098684 311.12,182.76 C311.76,182.4 312.44,181.96 312.59,181.25 C312.604019,180.742411 312.497795,180.238703 312.28,179.78 C311.28,176.48 314.34,172.58 317.85,172.86 C318.04,169.63 321.11,167.17 324.29,166.65 C330.77,165.65 336.62,170.55 343.29,170.19 C347.03,170.03 350.73,169.28 354.47,169.47 C357.696118,169.715603 360.885357,170.315891 363.98,171.26 C365.174922,171.522781 366.308599,172.011552 367.32,172.7 C369.9,174.65 369.9,178.5 369.66,181.7 C376.39,183.21 381.52,188.82 384.3,195.1 C387.08,201.38 387.84,208.31 388.56026,215.1 C388.57,215.52 388.29,221.29 388.01,226.27 Z" id="Path" fill="#339EF9"></path>
                <path d="M324.96,174.52 C324.08,173.21 323.31,171.36 324.36,170.18 C325.15,169.3 326.5,169.34 327.67,169.45 L356.4,172.11 C357.104516,172.101757 357.791333,172.330696 358.35,172.76 C359.048178,173.66608 358.966911,174.949242 358.16,175.76 C357.368569,176.510711 356.504299,177.180688 355.58,177.76 C353.82,179.16 352.72,181.36 350.7,182.35 C349.317751,182.893616 347.831764,183.122492 346.35,183.02 L336.04,183.02 C333.71,183.02 331.59,182.78 330.04,180.93 C328.35,178.85 326.48,176.74 324.96,174.52 Z" id="Path" fill="url(#linearGradient-15)"></path>
                <path d="M317.36,123.52 C317.855126,122.297823 318.282442,121.049259 318.64,119.78 C319.39,116.58 318.72,113.23 318.79,109.94 C318.86,106.65 319.98,102.94 322.96,101.56 C325.61,100.31 328.71,101.3 331.63,101.45 C337.2,101.72 342.63,98.81 348.15,99.24 C352.395185,99.5963997 356.254754,101.843837 358.66,105.36 C360.46,108.04 361.38,111.41 363.9,113.43 C364.67,114.05 365.56,114.51 366.36,115.09 C368.789403,117.043163 370.436113,119.804241 371,122.87 C371.541211,125.911495 371.719125,129.006523 371.53,132.09 C371.44,135.98 371.24,140.19 368.78,143.2 C366.32,146.21 362.08,147.29 358.16,147.92 C347.714469,149.59893 337.086556,149.821046 326.58,148.58 C321.35,147.96 317.05,146.58 315.99,141.04 C314.877996,135.182221 315.350966,129.133726 317.36,123.52 L317.36,123.52 Z" id="Path" fill="#606161"></path>
                <path d="M317.36,123.52 C317.855126,122.297823 318.282442,121.049259 318.64,119.78 C319.39,116.58 318.72,113.23 318.79,109.94 C318.86,106.65 319.98,102.94 322.96,101.56 C325.61,100.31 328.71,101.3 331.63,101.45 C337.2,101.72 342.63,98.81 348.15,99.24 C352.395185,99.5963997 356.254754,101.843837 358.66,105.36 C360.46,108.04 361.38,111.41 363.9,113.43 C364.67,114.05 365.56,114.51 366.36,115.09 C368.789403,117.043163 370.436113,119.804241 371,122.87 C371.541211,125.911495 371.719125,129.006523 371.53,132.09 C371.44,135.98 371.24,140.19 368.78,143.2 C366.32,146.21 362.08,147.29 358.16,147.92 C347.714469,149.59893 337.086556,149.821046 326.58,148.58 C321.35,147.96 317.05,146.58 315.99,141.04 C314.877996,135.182221 315.350966,129.133726 317.36,123.52 L317.36,123.52 Z" id="Path" fill="url(#linearGradient-16)"></path>
                <path d="M330.78,178.41 C330.320205,179.097441 330.137972,179.933572 330.27,180.75 C330.466461,181.204148 330.772208,181.602649 331.16,181.91 C333.83,184.38 336.71,186.91 340.24,187.78 C345.753731,189.055061 351.408852,186.304597 353.81,181.18 C354.005822,180.767134 354.130895,180.324305 354.18,179.87 C354.067386,178.862626 353.725287,177.894486 353.18,177.04 C352.29,174.96 352.43,172.61 352.37,170.34 C352.31,168.07 351.92,165.63 350.3,164.06 C348.766132,162.782762 346.814678,162.116846 344.82,162.19 C342.11,162.1 334.24,162.59 333.02,165.46 C332.31,167.15 332.83,170.18 332.55,172.06 C332.277838,174.252664 331.681322,176.392708 330.78,178.41 Z" id="Path" fill="#F1B475"></path>
                <path d="M332.67,167.44 C333.14363,169.344051 333.751826,171.212079 334.49,173.03 C335.250662,174.871959 336.754362,176.306648 338.63,176.98 C340.54,177.53 342.57,176.89 344.41,176.14 C345.658301,175.663385 346.854536,175.060242 347.98,174.34 C349.16986,173.503485 350.26618,172.541271 351.25,171.47 C352.225055,170.526962 353.05115,169.441237 353.7,168.25 C354.366492,167.114537 354.543779,165.757248 354.191297,164.488689 C353.838814,163.220129 352.986728,162.148862 351.83,161.52 C350.742656,160.894511 349.570505,160.429692 348.35,160.14 C345.709625,159.380344 342.965763,159.042846 340.22,159.14 C338.1,159.25 334.68,159.67 333.11,161.29 C331.54,162.91 332.09,165.59 332.67,167.44 Z" id="Path" fill="url(#linearGradient-17)"></path>
                <path d="M315.98,141.52 C314.535801,143.424369 314.179963,145.940486 315.039441,148.170649 C315.89892,150.400812 317.851296,152.027371 320.2,152.47 C321.166325,152.759026 322.213247,152.489597 322.92,151.77 C323.141026,151.447002 323.284736,151.077461 323.34,150.69 C323.560866,147.989636 322.972528,145.284671 321.65,142.92 C320.61,141.14 317.43,139.57 315.98,141.52 Z" id="Path" fill="#F1B475"></path>
                <path d="M370.54,138.52 C371.77,138.71 372.47,140.05 372.69,141.27 C373.145678,143.961691 372.122668,146.690989 370.01,148.42 C369.547853,148.813843 368.994293,149.085466 368.4,149.21 C367.797459,149.327301 367.174424,149.161404 366.71,148.76 C366.268208,148.219111 366.034147,147.538205 366.05,146.84 C365.92,145.1 365.79,142.78 366.76,141.23 C367.48,140.08 369.05,138.3 370.54,138.52 Z" id="Path" fill="#F1B475"></path>
                <path d="M320.06,139.39 C320.01,146.48 321.24,153.73 324.88,159.81 C328.52,165.89 334.88,170.62 341.88,171.15 C345.004655,171.2464 348.127616,170.909874 351.16,170.15 C352.772681,169.874224 354.349247,169.418026 355.86,168.79 C359.99,166.92 362.66,162.79 364.49,158.69 C369.116826,148.084378 369.714194,136.154782 366.17,125.14 C365.55,123.22 364.5,121.08 362.52,120.68 C361.719082,120.559608 360.900757,120.642128 360.14,120.92 C357.14,121.86 354.56,123.98 351.57,125.05 C347.8,126.4 343.57,125.97 339.72,125.05 C335.87,124.13 332.03,122.72 328.06,122.15 C326.886738,121.913997 325.674587,121.955087 324.52,122.27 C318.99,124.18 320.09,134.92 320.06,139.39 Z" id="Path" fill="#F1B475"></path>
                <path d="M339.08,193.79 C334.385394,193.651861 329.706733,193.177312 325.08,192.37 C322.849395,191.887826 320.5806,191.60339 318.3,191.52 C312.63122,191.620416 307.418019,194.646948 304.52,199.52 C302.99,197.3 303.36,194.18 304.72,191.85 C306.08,189.52 308.26,187.79 310.38,186.12 C311.128951,185.445211 312.001758,184.922206 312.95,184.58 C316.61,183.53 321.34,188.15 324.48,189.58 C329.110598,191.700573 334.031271,193.119479 339.08,193.79 L339.08,193.79 Z" id="Path" fill="url(#linearGradient-18)"></path>
                <path d="M349.34,194.29 C357.78,193.08 366.53,191.88 374.71,194.29 C375.777045,194.765949 376.978446,194.84746 378.1,194.52 C378.677554,194.225525 379.144178,193.751884 379.43,193.17 C380.134157,191.568508 379.999336,189.722211 379.07,188.24 C378.139534,186.791659 376.908341,185.560466 375.46,184.63 C373.72,183.4 370.46,181.39 368.2,182.39 C366.49,183.15 364.98,185.96 363.51,187.25 C359.47745,190.786307 354.594125,193.212461 349.34,194.29 Z" id="Path" fill="url(#linearGradient-19)"></path>
                <path d="M590.2,212.07 C578.7,214.13 566.97,215.49 555.31,216.64 C536.66,218.51 517.92,220.06 499.23,221.33 C498.39,208.64 497.72,182.71 499.31,177.33 C501.082959,170.685711 504.998717,164.812074 510.45,160.62 C511.45,160.62 514.3,158.28 515.34,157.76 C517.177241,156.938926 519.064299,156.234202 520.99,155.65 C524.421593,154.548732 527.914112,153.647221 531.45,152.95 C539.32,151.32 548.63,153.07 556.67,153.42 C561.6,153.62 566.67,153.86 571.11,156.05 C574.96465,158.153416 578.230782,161.1892 580.61,164.88 C585.19,171.41 588.89,195.84 590.2,212.07 Z" id="Path" fill="#339EF9"></path>
                <path d="M532.13,151.52 C531.43,153.22 530.54,154.93 530.58,156.77 C530.720915,158.688646 531.560599,160.488987 532.94,161.83 C535.687557,164.831283 539.676997,166.380472 543.73,166.02 C547.795276,165.562542 551.287726,162.924994 552.84,159.14 C553.111532,158.486462 553.257414,157.787589 553.27,157.08 C553.199024,156.178811 552.996893,155.292805 552.67,154.45 C551.449702,150.676177 550.931141,146.710713 551.14,142.75 C551.27,140.28 551.49,137.34 549.53,135.83 C548.927878,135.403364 548.24864,135.097707 547.53,134.93 C544.075537,133.9448 540.414463,133.9448 536.96,134.93 C533.04,136.04 534.14,138.13 534.12,141.44 C534.102814,144.895886 533.427442,148.316863 532.13,151.52 L532.13,151.52 Z" id="Path" fill="#775339"></path>
                <path d="M540.66,149.03 C543.17,150.08 546.34,149.98 548.33,148.13 C550.32,146.28 550.62,143.5 550.89,140.9 L551.26,137.31 C551.3688,136.968913 551.286953,136.595685 551.045405,136.331427 C550.803857,136.067169 550.439465,135.952204 550.09,136.03 C546.99553,135.688393 543.877554,135.611447 540.77,135.8 C538.7,135.92 535.77,135.8 534.67,137.97 C532.73,142.03 537.17,147.57 540.66,149.03 Z" id="Path" fill="url(#linearGradient-20)"></path>
                <path d="M522.38,127.71 C523.612,130.758176 525.327339,133.58781 527.46,136.09 C532.71,141.84 541.46,143.77 548.95,141.62 C556.44,139.47 562.58,133.62 566.01,126.62 C569.44,119.62 570.33,111.56 569.51,103.81 C569.06,99.53 568.03,95.15 565.38,91.81 C563.204908,89.1754223 560.3577,87.1782302 557.14,86.03 C545.255045,81.4510245 531.790846,85.9111713 524.99,96.68 C518.73,106.59 517.65,117.02 522.38,127.71 Z" id="Path" fill="#775339"></path>
                <path d="M515.29,115.22 C514.526921,116.311724 514.295563,117.688853 514.66,118.97 C515.031324,120.231647 515.665183,121.400538 516.52,122.4 C517.014613,123.183286 517.817387,123.72089 518.73,123.88 C519.614736,123.836616 520.421918,123.362026 520.89,122.61 C523.65,118.84 518.81,110.63 515.29,115.22 Z" id="Path" fill="#775339"></path>
                <path d="M570.73,112.59 C572.0565,112.536625 573.297805,113.242617 573.93,114.41 C574.536353,115.572199 574.662041,116.92604 574.28,118.18 C573.900198,119.422171 573.263036,120.570425 572.41,121.55 C571.692754,122.544098 570.707857,123.313982 569.57,123.77 C568.39388,124.208258 567.069267,123.845902 566.28,122.87 C566.016721,122.456868 565.830384,121.999497 565.73,121.52 C565,118.52 567.02,112.93 570.73,112.59 Z" id="Path" fill="#775339"></path>
                <path d="M521.1,116.62 C522.1,116.36 522.21,114.99 522.1,113.96 C521.801327,108.724194 522.93896,103.506299 525.39,98.87 C527.17,100.5 529.97,99.57 532.26,98.79 C542.02,95.44 552.67,96.52 562.96,97.42 C563.38382,97.4177617 563.798492,97.5432085 564.15,97.78 C564.357644,97.9747396 564.518352,98.2140918 564.62,98.48 C567.026777,103.478779 568.339328,108.933534 568.47,114.48 C569.483953,113.638984 570.624765,112.963948 571.85,112.48 C572.39,109.79 571.67,107.03 570.94,104.38 C569.44,98.88 567.82,93.15 564.01,88.9 C558.81,83.1 550.42,81.17 542.64,81.54 C534.13,81.95 525.13,85.27 520.64,92.54 C518.15,96.61 517.39,101.41 517.31,106.11 C517.31,108.03 516.92,111 517.64,112.82 C518.02,113.67 520.44,116.78 521.1,116.62 Z" id="Path" fill="#606161"></path>
                <path d="M521.1,116.83 C522.1,116.58 522.21,115.21 522.1,114.18 C521.800305,108.944114 522.937997,103.725947 525.39,99.09 C527.17,100.71 529.97,99.79 532.26,99 C542.02,95.66 552.67,96.73 562.96,97.64 C563.38382,97.6377617 563.798492,97.7632085 564.15,98 C564.355132,98.1929547 564.515551,98.428464 564.62,98.69 C567.023876,103.689812 568.336274,109.143933 568.47,114.69 C569.486146,113.852105 570.626444,113.177373 571.85,112.69 C572.39,110 571.67,107.23 570.94,104.59 C569.44,99.08 567.82,93.36 564.01,89.11 C558.81,83.31 550.42,81.37 542.64,81.75 C534.13,82.16 525.13,85.48 520.64,92.75 C518.15,96.82 517.39,101.63 517.31,106.33 C517.31,108.25 516.92,111.22 517.64,113.04 C518.02,113.89 520.44,117 521.1,116.83 Z" id="Path" fill="url(#linearGradient-21)"></path>
                <path d="M523.79,132.21 C524.255292,133.756962 524.928081,135.233734 525.79,136.6 C527.568194,138.964263 529.928051,140.828033 532.64,142.01 C534.040234,142.725242 535.511614,143.291673 537.03,143.7 C539.175872,144.149952 541.369365,144.331344 543.56,144.24 C548.23,144.24 552.89,143.93 557.56,143.63 C558.583062,143.645687 559.593778,143.40504 560.5,142.93 C561.283194,142.342785 561.902893,141.564718 562.3,140.67 C564.924906,136.112683 566.557225,131.052152 567.09,125.82 C567.131354,123.980805 567.268205,122.144999 567.5,120.32 C567.99,117.62 569.28,114.98 568.91,112.26 C567.75,112.57 567.11,113.79 566.63,114.9 C565.63,117.14 564.74,119.41 563.63,121.59 C563.007133,122.955712 562.177382,124.217203 561.17,125.33 C558.71,127.88 554.96,128.7 551.42,128.99 C548.72,129.2 546.01,129.17 543.3,129.12 C539.03,129.04 534.48,128.82 530.99,126.37 C526.73,123.37 525.25,117.46 520.81,114.8 C520.32,115.62 521.06,117.02 521.13,117.93 C521.24,119.59 521.39,121.24 521.63,122.93 C522.082018,126.079651 522.804693,129.184477 523.79,132.21 L523.79,132.21 Z" id="Path" fill="#606161"></path>
                <path d="M523.79,132.21 C524.255292,133.756962 524.928081,135.233734 525.79,136.6 C527.568194,138.964263 529.928051,140.828033 532.64,142.01 C534.040234,142.725242 535.511614,143.291673 537.03,143.7 C539.175872,144.149952 541.369365,144.331344 543.56,144.24 C548.23,144.24 552.89,143.93 557.56,143.63 C558.583062,143.645687 559.593778,143.40504 560.5,142.93 C561.283194,142.342785 561.902893,141.564718 562.3,140.67 C564.924906,136.112683 566.557225,131.052152 567.09,125.82 C567.131354,123.980805 567.268205,122.144999 567.5,120.32 C567.99,117.62 569.28,114.98 568.91,112.26 C567.75,112.57 567.11,113.79 566.63,114.9 C565.63,117.14 564.74,119.41 563.63,121.59 C563.007133,122.955712 562.177382,124.217203 561.17,125.33 C558.71,127.88 554.96,128.7 551.42,128.99 C548.72,129.2 546.01,129.17 543.3,129.12 C539.03,129.04 534.48,128.82 530.99,126.37 C526.73,123.37 525.25,117.46 520.81,114.8 C520.32,115.62 521.06,117.02 521.13,117.93 C521.24,119.59 521.39,121.24 521.63,122.93 C522.082018,126.079651 522.804693,129.184477 523.79,132.21 L523.79,132.21 Z" id="Path" fill="url(#linearGradient-22)"></path>
                <path d="M547.63,132.36 L542.09,132.17 C541.232471,132.08824 540.367215,132.169676 539.54,132.41 C538.696137,132.665778 538.071497,133.379652 537.93,134.25 C537.944282,134.942076 538.186857,135.610037 538.62,136.15 C538.849394,136.514152 539.140401,136.835613 539.48,137.1 C540.190384,137.479441 541.000818,137.629651 541.8,137.53 L551.8,137.32 C552.069362,137.333685 552.337778,137.278625 552.58,137.16 C552.816681,136.994118 552.986783,136.749596 553.06,136.47 C553.539543,135.019221 553.11575,133.422151 551.98,132.4 C550.9,131.6 548.94,132.4 547.63,132.36 Z" id="Path" fill="#775339"></path>
            </g>
        </g>
    </g>
</svg>